<?xml version="1.0" standalone="no"?>
<!DOCTYPE svg PUBLIC "-//W3C//DTD SVG 1.1//EN" "http://www.w3.org/Graphics/SVG/1.1/DTD/svg11.dtd" >
<svg xmlns="http://www.w3.org/2000/svg">
<metadata>
This is a custom SVG webfont generated by Font Squirrel.
Copyright   : Generated in 2010 by FontLab Studio Copyright info pending
</metadata>
<defs>
<font id="webfontvrSlvBea" horiz-adv-x="1703" >
<font-face units-per-em="2048" ascent="1536" descent="-512" />
<missing-glyph horiz-adv-x="841" />
<glyph unicode=" "  horiz-adv-x="841" />
<glyph unicode="&#x09;" horiz-adv-x="841" />
<glyph unicode="&#xa0;" horiz-adv-x="841" />
<glyph unicode="!" horiz-adv-x="1271" d="M158 94q0 47 34.5 82t79.5 35q47 0 82 -35t35 -82q0 -45 -35 -79.5t-82 -34.5q-45 0 -79.5 34.5t-34.5 79.5zM393 383q176 428 539 948l166 230l123 165q33 43 45 55.5t26 2.5q14 -8 2 -27q-12 -12 -45 -55l-125 -164l-161 -227q-373 -543 -535 -942q-9 -12 -18 -13h-2 q-2 0 -2 1t-3 1q-16 7 -10 25z" />
<glyph unicode="&#x22;" horiz-adv-x="831" d="M98 1040q-8 14 4 25q246 190 297 383q4 14 9 39q0 2 3 15.5t3 19.5v30q0 18 -2 24.5t-2 18.5q0 2 -1 7l-1 4l-2 4q-4 16 12 22q18 4 22 -12q4 -4 6 -23q4 -29 5 -63q0 -39 -15 -92q-23 -88 -90 -187q-84 -119 -221 -219q-2 0 -7 -3l-3 -1q-11 0 -17 8zM322 1040 q-8 14 4 25q246 190 297 383l10 39q4 25 4 35v30q0 18 -2 24.5t-2 18.5q0 2 -1 7l-1 4l-2 4q-4 16 12 22q16 2 23 -12q4 -4 6 -23q4 -29 4 -63q0 -39 -15 -92q-23 -88 -90 -187q-84 -119 -221 -219q-4 0 -6 -3q-2 -1 -4 -1q-10 0 -16 8z" />
<glyph unicode="#" horiz-adv-x="1968" d="M68 -123l1218 1876q8 14 27 4q14 -8 4 -24l-1219 -1876q-2 -8 -14 -9q-8 0 -10 5q-15 9 -6 24zM199 497.5q0 18.5 18 18.5h1239q18 0 18.5 -18.5t-18.5 -18.5h-1239q-18 0 -18 18.5zM553 1157.5q0 18.5 18 18.5h1239q18 0 18.5 -18.5t-18.5 -18.5h-1239q-18 0 -18 18.5z M678 -123l1218 1876q8 14 25 4q15 -9 6 -24l-1218 -1876q-8 -8 -17 -9q-4 0 -10 5q-16 10 -4 24z" />
<glyph unicode="$" horiz-adv-x="1943" d="M86 41q-84 195 55 379q14 18 70 74q35 35 57 51q25 16 27 18q15 9 24 -6q12 -15 -6 -25l-8 -6l-24 -18q-18 -14 -33 -27l-39 -39q-14 -14 -39 -47q-123 -166 -49 -340q41 -90 139 -147q100 -57 236 -64q166 -6 321.5 72t249.5 256q55 109 88 221q31 106 31 225 q0 111 -10 193q-8 68 -31 211q-4 12 -12 74q-8 63 -13 82q-2 14 -10 75q-8 55 -8 84q0 39 -2 76q-4 59 2 88q2 12 5 42t5 38q6 47 18 90l31 86q45 115 125 195t164 106q80 27 172 23q80 -2 156 -39q123 -59 159 -172q37 -111 -32 -268q-35 -70 -107 -123q-61 -45 -112 -70 q-29 -12 -62 -23q-14 -8 -22 11q-6 18 10 24q8 0 51 19q41 18 106 67q63 49 95 107q66 145 35 241.5t-140 155.5q-61 33 -135 35t-156 -23q-76 -23 -153 -98q-72 -70 -117 -180q-46 -114 -55 -246q-10 -141 -2 -205q6 -51 35 -225q2 -10 4 -23.5t2 -17.5q45 -256 41 -416 q-8 -242 -123 -456q-88 -172 -252 -262q-162 -88 -354 -87q-133 4 -246 64q-117 64 -162 170zM215 -356l1665 2601q12 14 27 6q8 -4 8 -10q0 -8 -4 -17l-1665 -2601q-10 -14 -27 -4q-14 9 -4 25z" />
<glyph unicode="%" d="M203 -41l1202 1874q12 14 27 6q12 -8 6 -27l-1205 -1873q-6 -8 -16 -9q-6 0 -8 2q-18 9 -6 27zM590 1624q0 86 63 150q61 61 148 61q90 0 151.5 -61.5t61.5 -149.5t-61.5 -149.5t-151.5 -61.5q-86 0 -148 62q-63 63 -63 149zM608 145q0 88 61.5 149.5t149.5 61.5 t149.5 -61.5t61.5 -149.5t-61.5 -149.5t-149.5 -61.5t-149.5 61.5t-61.5 149.5z" />
<glyph unicode="&#x26;" horiz-adv-x="2379" d="M258 35q-72 207 21 457q47 127 122 231q76 102 172 180q98 78 199 135q115 66 227 107q111 41 230 78q172 53 235 69q4 2 11 2q12 2 59 17q49 14 57 16l148 229q76 115 153 193q80 80 135.5 104.5t114.5 28.5q49 2 88 -14q35 -16 58 -45q41 -53 22 -129 q-41 -197 -526 -348l-170 -50q-244 -393 -369 -659q-254 -532 -145 -743q22 -40 55 -68q207 86 387 268q25 25 66 74q12 16 57 68l49 63q8 12 20.5 32.5t14.5 24.5q8 12 14 22.5t13 20.5l16 29l6 10q8 14 25 8q16 -10 8 -24q-86 -174 -262 -354q-154 -154 -326 -244 q-8 -4 -19.5 -9t-18.5 -8.5l-11 -5.5q70 -37 166 -39q244 -10 448 179q51 43 88 90q53 66 60 73l16 27q12 14 27 6q15 -9 6 -24l-8 -13q-2 -2 -9.5 -14t-13.5 -18q-16 -23 -32 -43q-4 -4 -50 -56q-18 -20 -59 -57q-219 -199 -475 -186q-125 4 -207 57q-178 -70 -363 -70 q-193 0 -333 80q-138 78 -197 242zM293 47q51 -143 178 -219q131 -78 317 -78q176 0 328 60q-34 34 -49 67q-63 121 -16 338q41 184 161 438q133 279 349 627q-29 -6 -37 -10q-4 -2 -39 -10l-213 -62q-68 -18 -201 -65q-123 -43 -196.5 -80t-172 -98.5t-163.5 -127.5 q-61 -61 -125 -153q-57 -84 -101 -195q-90 -244 -20 -432zM1645 1343q100 29 129 39q467 145 499 318q12 55 -14 98q-31 43 -94 49q-57 6 -99 -18q-152 -70 -297 -293q-83 -123 -124 -193z" />
<glyph unicode="'" horiz-adv-x="495" d="M549 1174l280 563q8 18 25 8q16 -6 8 -25l-280 -563q-6 -10 -17 -10q-6 0 -8 2q-16 11 -8 25z" />
<glyph unicode="(" horiz-adv-x="784" d="M225 -281q-55 475 144 936q156 367 473 727q219 246 501 471q143 113 234 168q14 8 27 -6q9 -15 -7 -24q-3 0 -30 -19q-23 -14 -84 -59l-117 -88q-281 -219 -498 -469q-129 -143 -245 -316q-109 -160 -209 -372q-98 -209 -142 -455q-41 -238 -10 -489q2 -14 -16 -21h-2 q-13 0 -19 16z" />
<glyph unicode=")" horiz-adv-x="1212" d="M-334 -365q-8 12 6 25q74 45 232 168q273 215 497 467q705 803 605 1632q0 14 16 21q20 0 20 -17q57 -457 -141 -936q-164 -381 -473 -727q-225 -254 -502 -471l-121 -90l-84 -59q-28 -18 -30 -19q-4 -4 -10 -4q-9 0 -15 10z" />
<glyph unicode="*" horiz-adv-x="880" d="M100 1425v7q2 49 56 65q49 14 110 -14q68 -29 160 -41q-58 52 -141 86q-61 25 -86 67q-27 45 4 84l6 7q41 31 84 6q41 -25 67 -88q31 -78 86 -142q-12 92 -40 160q-29 61 -15 111q16 53 66 55h6q53 -4 65.5 -55.5t-16.5 -110.5q-29 -68 -39 -160q55 66 84 142 q29 61 70 86q45 27 84 -4l6 -7q35 -41 6 -84q-29 -45 -90 -67q-77 -34 -141 -86q88 12 159 41q61 29 111 14q53 -16 55 -65v-7q-2 -33 -26 -51q-23 -16 -62 -16q-37 0 -78 18q-70 29 -159 39q80 -61 141 -84q68 -29 90 -69q25 -45 -8 -84l-4 -4q-39 -33 -84 -7 q-43 25 -70 88q-23 61 -84 142q10 -90 39 -160q18 -41 18 -78q0 -39 -16 -61q-18 -25 -51 -27h-6q-49 2 -66 55q-14 49 15 111q29 72 40 160q-55 -68 -86 -142q-25 -63 -67 -88q-45 -25 -86 4q-37 37 -12.5 86.5t90.5 73.5q76 29 141 84q-92 -10 -160 -39 q-59 -29 -110.5 -16.5t-55.5 65.5z" />
<glyph unicode="+" d="M227 770q0 18 19 18h1239q18 0 18 -18t-18 -18h-1239q-19 0 -19 18zM403 150l771 1183q10 16 24 4q15 -9 6 -24l-770 -1184q-8 -8 -16 -8l-4 1q-5 1 -6 3q-15 9 -5 25z" />
<glyph unicode="," horiz-adv-x="413" d="M129 -96q-6 14 12 22q84 23 133 68q-4 -2 -18 -2q-49 0 -82 32.5t-33 82t33 81.5q35 35 82 35q49 0 84 -35q33 -33 33 -82q0 -27 -11 -47q-45 -121 -212 -168h-5q-14 1 -16 13z" />
<glyph unicode="-" horiz-adv-x="1464" d="M96 639q0 18 19 18h1239q18 0 18 -18t-18 -18h-1239q-19 0 -19 18z" />
<glyph unicode="." horiz-adv-x="454" d="M158 94q0 47 34.5 82t79.5 35q47 0 82 -35t35 -82q0 -45 -35 -79.5t-82 -34.5q-45 0 -79.5 34.5t-34.5 79.5z" />
<glyph unicode="/" horiz-adv-x="1982" d="M346 -432l1665 2601q8 14 27 4q14 -8 4 -25l-1665 -2601q-6 -8 -17 -8q-8 0 -10 2q-16 13 -4 27z" />
<glyph unicode="0" horiz-adv-x="1591" d="M162 666q61 305 276 655q180 283 377 446q158 131 338 195q23 8 82 23q55 12 72 14q34 3 61 6h51h39q12 0 25 -4l10 -2q20 -8 14 -25q-2 -20 -24 -16q-129 31 -320 -35q-381 -135 -690 -625q-209 -336 -270 -641q-61 -289 26 -477q78 -164 260 -182q256 -29 502 199 q258 240 465 737q76 188 98 321q25 145 7 240t-43 147q-29 61 -56 91q-57 59 -131 82q-78 23 -147 2h-2q-2 0 -27 -11q-16 -8 -47 -47q-25 -35 -29 -88q-2 -57 51.5 -96t98.5 -51q37 -10 55 -11q23 -4 19 -22q-4 -25 -23 -18q-47 0 -121 36q-127 59 -121 166q2 88 70 146 q41 35 63 34q82 27 172 0q84 -25 150 -96q106 -119 113 -315q10 -238 -113 -526q-206 -501 -473 -750q-129 -120 -264 -172q-104 -41 -211 -41q-45 0 -60 2q-207 23 -292 205q-96 194 -31 504z" />
<glyph unicode="1" horiz-adv-x="1159" d="M172 12q518 770 1317 1825q-129 -90 -248 -147q-207 -96 -453 -152q-297 -66 -516 -65q-20 0 -20 20t20 20q223 0 508 64q561 125 844 438l31 -24l-53 -70l-142 -188l-203 -271l-249 -340l-271 -374l-274 -388l-256 -372q-10 -12 -29 -4q-16 10 -6 28z" />
<glyph unicode="2" horiz-adv-x="1648" d="M96 -25q-20 33 29 99q86 115 213 231q129 121 297 240l291 203l313 200q279 174 391 256q157 117 228 264q72 147 36 275q-55 186 -290 215q-199 18 -395.5 -80t-297.5 -287q-41 -76 -16 -137t119 -76q143 -23 243 146q31 51 43 82q18 43 25 67l8 27q4 23 25 14 q20 -2 14 -24q0 -6 -8 -29q-2 -2 -10 -28.5t-17 -45.5q-14 -37 -45 -86q-119 -193 -284 -164q-78 12 -123 60q-43 45 -39 102q2 51 28 113q115 207 311.5 307t422.5 78q119 -12 207 -74q90 -63 118 -168q43 -158 -45 -317q-86 -156 -233 -267q-90 -68 -393 -258l-312 -200 l-288 -199q-162 -115 -297 -238q-121 -109 -207 -227q-33 -45 -29 -53q10 -16 74 4q53 18 63 20q59 16 72 21q276 92 395 84q152 -8 361 -109q68 -31 75 -34q25 -9 62 -19t59 -6q18 2 51 20q27 14 52 50q16 14 28 2q16 -10 4 -29q-72 -84 -168 -84q-66 4 -182 64 q-199 94 -346 104q-113 8 -379 -82q-121 -37 -137 -41q-97 -23 -117 14z" />
<glyph unicode="3" d="M53 221q2 82 39 168q47 121 174 205q3 3 25 12q25 10 59 17q37 6 76 -7q66 -23 100 -102q31 -78 4 -139q-14 -35 -53 -72q-35 -33 -57 -45q-16 -10 -31 -14q-14 -6 -27 12q-8 18 13 27q90 37 119 106q20 47 -5 109q-27 63 -75 80q-61 18 -127 -19l-31 -20 q-20 -14 -66 -66q-41 -47 -61 -100q-72 -176 -6 -318q53 -113 184 -155q252 -88 557 28q340 135 535 471q164 291 84 553q-27 84 -80 156h-23q-187 -22 -313 43q-37 20 -61 55q-20 29 -15 64q12 66 105 71q127 10 227 -75q45 -37 74 -84q18 -18 24 -29q43 6 92 27 q154 59 265 206q61 88 73 183q12 100 -26 188q-68 147 -236 166q-101 9 -190 -18q-88 -27 -123 -54q-31 -25 -62 -57q-12 -14 -28 -2q-14 14 -2 29q61 68 151 108q125 47 258 33q96 -8 168 -61q68 -51 101 -127q43 -96 28 -209q-15 -114 -80 -203q-121 -160 -284 -221 q-20 -8 -78 -25q45 -70 74 -151q39 -131 24 -254q-14 -164 -112 -332q-101 -178 -252 -307q-131 -113 -303 -181q-152 -61 -310 -67q-8 -2 -39 -2q-135 0 -237 39q-152 53 -207 178q-37 76 -33 182zM1032 1262q-10 -41 53 -74q106 -55 287 -41l-6 6l-2 2v4l-6 10 q-2 2 -10.5 11.5t-14.5 17.5q-15 22 -37 37q-76 66 -174 65h-22q-62 -5 -68 -38z" />
<glyph unicode="4" horiz-adv-x="1681" d="M172 836q524 137 1307 651l342 235l250 185q80 61 86 67l28 -28l-874 -1117q8 -4 16 -6q16 -4 19 -4q260 -70 342 -223q8 -18 -9 -29q-18 -12 -26 8q-74 137 -318 205l-51 13l-655 -836q-6 -8 -17 -8l-12 4q-14 14 -4 29l643 821q-168 33 -401 35h-111q-39 0 -109 -4 q-51 -4 -102 -7q-25 -2 -47.5 -4t-42.5 -2q-57 -4 -82 -6l-36.5 -5t-31.5 -3q-27 -2 -51 -6q-6 0 -17 -1t-15 -3l-13 -2zM389 860q211 20 404 21q35 0 45 -2q254 -2 430 -41l784 1003q-287 -217 -551 -389q-319 -211 -647 -383q-244 -131 -465 -209z" />
<glyph unicode="5" horiz-adv-x="1753" d="M100 182q-25 188 197 416q14 14 28.5 0t0.5 -29q-207 -217 -187 -383q2 -27 17 -61q10 -25 28 -47q20 -25 29 -33q12 -12 25 -20l8 -9q144 -86 295 -86q256 0 499 232q199 186 351 483q41 84 65 184q49 206 -12 338q-63 135 -246 179q-68 16 -151 0q-82 -14 -150 -50 q-82 -41 -129 -71q-68 -45 -92 -64q-31 -25 -37 -31l-31 27l484 623q18 27 38 39q55 31 138 4q209 -68 495 -23q61 8 125 25q41 10 90 26l31 11q18 8 27 -13q8 -18 -13 -26q-61 -29 -251 -64q-147 -20 -248 -18q-147 3 -271 43q-53 16 -77 8q-27 -8 -39 -18q-10 -8 -11 -15 l-2 -2l-393 -508l78 47q101 55 190 80q121 31 207 10q203 -45 277 -200q37 -80 37 -187q0 -84 -25 -182l-18 -61q-12 -43 -17 -51q-8 -20 -14 -39q-2 -6 -12 -27l-7 -12q-4 -4 -12 -23q-10 -25 -33 -63q-33 -57 -51 -84q-135 -207 -262 -326q-190 -178 -385 -223 q-74 -18 -143 -19q-164 0 -316 93q-10 4 -32 22q-16 14 -52 70q-33 51 -41 108z" />
<glyph unicode="6" horiz-adv-x="1425" d="M188 20q-96 182 9 521q82 285 260 555q280 436 559 651q217 166 373 160q145 0 198 -90q18 -33 23 -86q3 -49 -6 -93q-10 -49 -25 -88q-12 -37 -25 -63l-14 -29q-8 -20 -27 -8q-18 8 -8 29l6 12q2 4 15 33l18 45q10 29 17 57q8 43 10 60q4 41 0 59q-6 31 -19 51 q-39 70 -166 70h-2q-61 0 -139 -31q-106 -45 -203 -121q-270 -203 -553 -639q-172 -272 -253 -547q-98 -324 -11 -487q72 -139 275 -141q106 -2 210.5 34.5t178.5 94.5q61 47 145 141q70 78 115 149q43 68 80 142q80 158 96 307q14 143 -37 236q-68 117 -229 126 q-227 9 -412 -147q-94 -82 -141 -164q-8 -18 -29 -8q-16 10 -8 29l5 8l13 20q16 23 52 64q37 43 79 80q88 76 185 114q117 51 258 45q184 -12 262 -147q59 -109 45 -258q-16 -152 -104 -324q-39 -74 -82 -145q-41 -66 -115 -154q-72 -84 -149 -143q-82 -61 -185 -100 q-111 -41 -219 -41h-14q-226 1 -312 161z" />
<glyph unicode="7" horiz-adv-x="954" d="M72 -186q12 12 114 135l306 364l366 451q332 414 520 684q104 154 154 246q37 72 37 108q-14 0 -33 -6q-154 -53 -350 -65q-176 -10 -355 8q-221 18 -385 57q-20 2 -16 25q2 18 25 14l10 -2l29 -6q4 0 18 -3t24.5 -5t27 -3t34.5 -6q8 -2 21.5 -4t24.5 -4l22 -4 q12 -2 39.5 -4t42.5 -4q63 -8 88 -10q424 -41 686 55q57 20 80 -10q41 -63 -191 -400q-182 -262 -520 -688l-227 -280l-215 -262l-177 -209l-125 -148q-45 -51 -45 -53q-6 -6 -16 -6l-12 4q-14 15 -2 31z" />
<glyph unicode="8" horiz-adv-x="2048" d="M18 154q0 6 1 15t2.5 17.5t3.5 16.5q6 23 12 39q4 10 8 26l4 15q55 137 123 231q80 115 188 207q137 119 306 194q135 63 370 134q23 6 47.5 14t39 12t20.5 6q-59 123 -80 179q-29 80 -29 170q0 106 51 202q78 154 236 213q150 55 295 8q74 -29 123 -63q-14 59 -15 61 q-9 37 -24 74q-25 57 -27 64q-2 2 -26 47q-6 12 -12.5 19t-8.5 11l-6 13q-14 14 4 28q14 10 29 -4l4 -8q4 -6 10 -18q2 -2 19 -27q12 -20 18 -35l20 -43q2 -4 9.5 -23.5l11.5 -29.5l18 -57q18 -76 23 -115q29 -33 49 -66q84 -139 55 -329q-4 -23 -22 -19q-18 3 -19 25 q27 190 -61 321q0 -10 -4 -63q-18 -147 -111 -277q-104 -145 -473 -280q113 -221 127 -365q31 -252 -129 -522q-100 -184 -330 -307q-209 -117 -407 -117q-289 0 -393 154q-68 101 -50 252zM55 74q0 -18 8.5 -51t14.5 -50q12 -31 24 -49q92 -135 359 -135q184 0 391 113 q211 115 311 291q82 141 111 258q31 123 12 233q-20 121 -45 184q-23 59 -80 176l-112 -34q-225 -66 -365 -131q-305 -141 -479 -390q-41 -55 -70 -108t-39 -82l-8 -29v-2l-2 -8q-2 -4 -6 -20q-6 -25 -8 -31q-4 -12 -8.5 -41t-6.5 -45t-2 -49zM1075 1430q4 -98 27 -160 q23 -59 80 -174q360 133 458 268q119 166 105 365q-59 59 -141 83q-61 20 -123 21q-106 0 -205 -55q-96 -53 -156 -164q-47 -92 -45 -184z" />
<glyph unicode="9" horiz-adv-x="1130" d="M215 1163q-53 143 27 307q84 174 311 324q160 100 348 141q143 31 311 21q86 -6 160 -21q84 -16 115 -24q33 -10 39 -15q20 -6 12 -26.5t-27 -11.5q-133 49 -301 57q-360 23 -635 -156q-217 -133 -296 -307q-72 -147 -25 -274q39 -100 139.5 -149.5t229.5 -29.5 q264 37 680 441q102 98 184 186q80 86 135 152q45 53 45 57l33 -25l-1411 -1925q-6 -8 -17 -8l-12 4q-14 8 -4 29l1167 1591l-28 -28q-10 -10 -17.5 -18.5t-15.5 -16.5t-16.5 -15.5t-14.5 -13.5q-193 -184 -346 -289q-209 -141 -356 -162q-154 -23 -262 35q-105 53 -152 170 z" />
<glyph unicode=":" horiz-adv-x="661" d="M242 211q0 49 34 84q33 33 80 33q49 0 82 -33q35 -35 35 -84q0 -47 -35 -82q-33 -33 -82 -33q-47 0 -80 33q-34 35 -34 82zM375 770q0 51 32.5 84t82 33t81.5 -33q35 -35 35 -84q0 -47 -35 -82q-33 -33 -82 -33t-81.5 33t-32.5 82z" />
<glyph unicode=";" horiz-adv-x="677" d="M129 -96q-6 14 12 22q84 23 133 68q-4 -2 -18 -2q-49 0 -82 32.5t-33 82t33 81.5q35 35 82 35q49 0 84 -35q33 -33 33 -82q0 -27 -11 -47q-45 -121 -212 -168h-5q-14 1 -16 13zM375 770q0 51 32.5 84t82 33t81.5 -33q35 -35 35 -84q0 -47 -35 -82q-33 -33 -82 -33 t-81.5 33t-32.5 82z" />
<glyph unicode="&#x3c;" d="M188 815q4 12 21 12q410 -43 850 228q207 123 362 278q14 12 26.5 0t0.5 -26l-16 -17q-4 -4 -21.5 -19.5t-30.5 -25.5l-73 -61q-55 -43 -105 -78q-82 -57 -123 -82q-205 -123 -395 -182q-206 -61 -399 -56q106 -66 209 -145q131 -100 198 -201q95 -126 105 -245 q0 -20 -18.5 -20.5t-18.5 15.5q-16 207 -289 422q-53 43 -129 95q-47 33 -104 65l-39 21q-15 6 -11 22z" />
<glyph unicode="=" d="M76 497.5q0 18.5 18 18.5h1239q18 0 18.5 -18.5t-18.5 -18.5h-1239q-18 0 -18 18.5zM328 925.5q0 18.5 18 18.5h1239q18 0 18.5 -18.5t-18.5 -18.5h-1239q-18 0 -18 18.5z" />
<glyph unicode="&#x3e;" d="M162 246q-15 12 0 24l43 41q55 51 135 113q113 86 190 131q195 119 396 180q197 63 397 58q-121 74 -209 145q-125 98 -199 199q-92 127 -102 247q0 14 16 21q20 0 21 -19q16 -205 289 -419q47 -41 127 -95q35 -25 106 -65q35 -20 39 -21q14 -6 10 -22q-8 -14 -20 -12 q-408 43 -852 -228q-68 -41 -121 -80l-100 -77l-76 -62l-49 -45l-17 -14q-3 -6 -12 -6t-12 6z" />
<glyph unicode="?" horiz-adv-x="1710" d="M121 94q0 49 33 82q35 35 82 35t81.5 -35t34.5 -82q0 -45 -34.5 -79.5t-82 -34.5t-81.5 34q-33 33 -33 80zM369 383l286 459h11q297 -43 583 157q219 154 307 353q94 209 -20 327q-45 45 -121 70q-102 39 -225 20q-109 -16 -232 -77q-111 -55 -202 -166 q-94 -113 -142 -250q-8 -18 -22 -12q-16 4 -12 22q88 266 333 422q244 154 508 78q219 -66 213 -268q-2 -188 -188 -394q-201 -225 -477 -299q-156 -41 -293 -20l-275 -440q-4 -10 -16 -11l-4 2q-5 1 -6 2q-14 9 -6 25z" />
<glyph unicode="@" horiz-adv-x="2338" d="M100 471q4 193 148 397q168 240 446 420q283 182 586 250q305 68 590 -12q176 -59 278 -150q104 -92 129 -223t-63 -289q-47 -92 -137 -190q-90 -100 -201 -189q-109 -88 -234 -137q-121 -49 -223 -22q-82 25 -88 86q-10 63 72 151l-127 -98q-43 -33 -127 -86 q-80 -51 -152 -72q-78 -23 -147 -22q-113 0 -199 67.5t-94 173.5q-23 197 256 432q365 309 694 310q102 0 187 -37q82 -37 104 -123q29 -135 -156 -332l9 6l153 107l127 84q47 29 49 28q15 12 25 -6q9 -12 -6 -24l-2 -1q-2 -1 -6 -4t-9.5 -6.5l-13.5 -8.5t-16 -9l-127 -84 l-154 -106q-319 -236 -303 -336q0 -39 62 -54q90 -25 210.5 24.5t223.5 137.5q104 90 192 187q88 98 127 172q61 113 61.5 215t-49.5 172q-51 72 -137 129q-82 53 -198 92q-276 82 -588 6q-301 -74 -576 -254q-272 -178 -417 -395q-150 -217 -142 -395.5t119 -298.5 q106 -119 295 -179q180 -57 387 -34q276 31 471 114q197 86 360 226q14 12 27 0q14 -12 2 -25q-158 -152 -387 -242q-233 -92 -471 -112q-229 -20 -434 49q-193 66 -303 199q-107 126 -103 321zM594 530q10 -96 86 -151q80 -57 170 -57q94 0 217 61q125 63 197 117l202 164 q335 280 295 436q-39 131 -254 131q-152 0 -327 -80q-178 -82 -342 -221q-264 -222 -244 -400z" />
<glyph unicode="A" horiz-adv-x="2471" d="M49 285v2q0 18 18.5 18t18.5 -18v-2q0 -53 16 -119q37 -123 111 -174q83 -49 175 -49q38 0 77 8q131 27 235 129q92 86 218 264l174 268q-109 43 -156 111q-31 39 -31 96q0 92 66 148q72 59 219 59q92 0 160 -20l16 25q16 26 31 42q344 463 594 682q330 287 657 342 q68 12 162 12q207 0 352 -102q10 -8 10 -16q0 -5 -4 -11q-10 -16 -26 -2q-123 84 -291 97l-41 -29q-37 -25 -109 -86q-180 -150 -331 -354q-324 -428 -431 -979q84 20 185 63q68 29 114 58q27 14 37 26q14 12 26.5 -2t-3.5 -27q0 -4 -37 -28q-41 -27 -129 -66 q-86 -37 -201 -63q-43 -252 -43 -502v-86h-37q0 123 -30 291q-27 133 -76 264q-108 -7 -196 -7q-29 0 -56 1q-225 10 -367 51l-67 -108q-203 -315 -334 -439q-72 -68 -158 -106q-92 -41 -192 -41q-104 0 -182 57q-68 51 -101 125q-43 96 -43 197zM942 819q0 -109 170 -174 q164 256 215 330q-70 16 -137 16q-129 0 -195 -53q-53 -43 -53 -119zM1147 633q145 -41 348 -47q30 -1 60 -1q88 0 176 7q-49 115 -125 203q-100 123 -242 168zM1386 995q145 -53 248 -176q84 -102 133 -223q98 14 134 20q104 563 440 1012q213 281 446 447q-76 -2 -131 -13 q-328 -59 -641 -336q-260 -229 -588 -675q-37 -50 -41 -56zM1782 559q18 -43 30 -86q29 -84 46 -184q8 135 34 289q-71 -13 -110 -19z" />
<glyph unicode="B" horiz-adv-x="2035" d="M-386 86q0 14 15 16q20 4 23 -14q12 -66 63 -104q54 -49 135 -50q24 0 50 5q111 12 219 102q98 83 196 233q59 92 205 351l205 360q244 418 389 617q100 141 199 235h-15q-322 0 -581 -180q-131 -92 -201 -189q-12 -16 -27 -4q-16 12 -4 27l9 10q2 2 11 12.5t15 16.5 l41 43q12 12 57 53q39 37 72 57q273 190 608 191q45 0 54 -2q83 77 178 129q156 85 355 85q20 0 40 -1q86 -2 170 -43q82 -39 113 -109q3 -6 3 -10q0 -10 -11 -14q-14 -8 -25 8q-27 55 -102 92q-72 35 -152 39h-16q-214 0 -359 -80q-55 -29 -143 -100q16 0 74 -8 q291 -47 413 -197q90 -109 90 -260q0 -72 -14 -113q-23 -66 -45 -100q-72 -117 -197 -168l-77 -29q94 -82 137 -164q59 -106 59 -249q0 -141 -67 -273q-82 -166 -238 -266q-154 -98 -342 -98q-242 0 -405 114q-162 113 -162 346q0 4 1 12.5t1 12.5t1 12.5t1 10.5q0 4 1 9 t1 7t1 6l1 4v4q2 20 22 15q15 -3 13 -25q-6 -31 -6 -68q0 -164 114 -290q133 -133 416 -133q174 0 319.5 90t227.5 254q66 131 66 256q0 114 -54 225q-34 74 -129 160q-18 14 -22 20q-74 -11 -145 -11t-140 11q-154 25 -154 100q0 41 33 66q31 23 78 23q53 0 108 -19 q111 -41 228 -131q145 31 235 127l25 31l11 16t9 14q6 8 15 25l12 25q2 4 4 11t2 9l4 12l2 6q12 49 13 103q0 137 -82 237q-115 139 -392 183q-55 10 -106 12q-57 -57 -92 -96q-76 -82 -180 -232q-61 -88 -152 -233l-184 -307l-314 -557q-170 -285 -299 -396 q-113 -96 -239 -112q-27 -4 -51 -4q-97 0 -162 57q-28 24 -52.5 60.5t-24.5 70.5zM1202 1085q0 -33 74 -53q66 -18 190 -22q53 0 97 6q-125 84 -187 106q-55 18 -98 19q-27 0 -53 -17q-23 -14 -23 -39z" />
<glyph unicode="C" horiz-adv-x="1509" d="M84 389q0 309 299 701q219 287 526 516q-76 106 -90 225q-2 18 15 20q16 4 20 -18q25 -123 86 -205q37 29 94 66q250 160 457 215q104 25 176 24q82 0 148 -32q49 -33 69 -89q12 -35 12 -71q0 -96 -57 -172q-37 -55 -104 -105q-135 -98 -328 -102q-66 0 -123 10 q-135 25 -248 103q-68 47 -104 102l-109 -86q-367 -303 -565 -653q-137 -248 -137 -449q10 -250 168 -354q95 -61 239 -62q184 6 316 88q227 129 418 424q8 14 26 7q16 -12 4 -27q-194 -298 -430 -436q-166 -92 -334 -92q-102 0 -194 34q-121 49 -187 164q-63 113 -63 254z M961 1597q41 -49 96 -92q102 -76 233 -96q57 -10 117 -10q170 0 303 92q6 4 15.5 12t11.5 8l20 21l19 18l14 17q4 4 6 7t4 5l6 6l4 4q49 68 50 152q0 51 -23 86q-25 37 -76 57q-37 12 -94 12q-78 0 -168 -24q-251 -64 -538 -275z" />
<glyph unicode="D" horiz-adv-x="2062" d="M-312 57q0 14 15 17q18 2 23 -13q16 -68 61 -106q60 -48 142 -48q21 0 44 3q117 16 217 104q94 86 189 236l186 325q127 229 223 383l168 263q-123 18 -202 84q-84 68 -105 161q-5 21 -5 44q0 76 56 163q78 117 215 164q96 33 198 33l73 -4q137 -16 272 -70q88 63 162 98 q178 88 377 88q303 0 387 -194q2 -5 2 -9q0 -9 -10 -16q-18 -6 -25 11q-78 172 -354 172q-186 0 -361 -84q-92 -49 -137 -84q201 -90 316 -260q127 -195 127 -467q0 -211 -70 -426q-141 -438 -453 -600q-150 -78 -307 -78q-129 0 -235 55q-108 55 -160 166q-18 35 -29 102 q-2 16 -2 32q0 45 19 101q25 72 92 113q66 39 151 39q113 0 254 -57q14 -10 10 -25q-10 -16 -24 -10q-135 55 -240 55q-72 0 -127 -31q-74 -43 -92 -141q-6 -30 -6 -57q0 -59 27 -105q49 -98 145 -149q98 -51 217 -51q150 0 291 73q305 160 434 580q68 219 68 414 q0 260 -121 446q-111 168 -320 256q-49 -37 -131 -115q-156 -156 -311 -389q207 0 369 115q82 55 141 125q8 14 27 2q14 -12 2 -25q0 -2 -15 -18q-12 -16 -53 -49q-59 -49 -74 -60q-176 -127 -370 -127q-25 0 -52 2l-178 -274l-186 -322q-115 -205 -131 -231 q-164 -291 -287 -399q-109 -98 -238 -115q-27 -4 -51 -4q-97 0 -162 57q-28 24 -52 60.5t-24 70.5zM707 1423q68 -131 274 -168q94 141 188 254q131 160 256 260q-111 41 -227 58q-38 5 -78 5q-72 0 -149 -17q-123 -29 -197 -109q-90 -100 -90 -193q0 -46 23 -90z" />
<glyph unicode="E" horiz-adv-x="1732" d="M221 575q41 248 228 404q160 133 331 168q-34 94 -34 189q0 92 32 186q-133 139 -157 307q-4 20 16 22q16 0 20 -16q28 -157 136 -276q25 68 81 147q72 100 185 170q72 41 117 59q49 18 90 29q29 6 34 6q51 6 97 6q159 0 241 -78q63 -63 68 -165v-11q0 -92 -49 -159 q-70 -100 -191 -156q-119 -55 -249 -55q-248 8 -408 141q-24 -90 -24 -168q0 -93 34 -172q51 10 122 10q31 0 67 -2q78 -10 125 -45q37 -28 37 -67q0 -14 -5 -31q-16 -49 -75 -55q-14 -2 -29 -2q-47 0 -92 16q-57 20 -97 49q-51 41 -73 86q-188 -37 -328 -162 q-172 -145 -213 -381q-6 -52 -6 -99q0 -159 72 -259q74 -98 190 -150q123 -53 240 -53q244 0 442 119q201 121 303 334q8 18 25 10q18 -8 10 -25q-123 -231 -322 -352q-203 -123 -458 -123q-305 12 -457 213q-84 117 -84 285q0 51 8 106zM821 1532q156 -143 396 -143 q143 2 237 51q98 51 172 145q43 55 43 148q0 86 -55 139q-67 67 -211 67q-49 0 -107 -8q-108 -15 -215 -86q-109 -72 -178 -162q-45 -65 -82 -151zM838 1118q20 -35 57 -63q61 -46 135 -56q15 -2 29 -2q53 0 71 31q4 11 4 20q0 30 -34 50q-45 27 -96 28q-25 2 -50 2 q-57 0 -116 -10z" />
<glyph unicode="F" d="M-59 154q0 31 10 88q6 18 22 14q18 -2 15 -23q-10 -51 -11 -79q0 -86 49.5 -135.5t137.5 -59.5q21 -3 43 -3q98 0 194 56q95 58 197 166q70 74 152 180l194 256l131 177l17 22q-109 -35 -218 -35q-61 0 -108 8q-52 9 -104 43q-46 30 -47 77q0 8 1 16q15 123 203 122 q61 0 152 -18q51 -10 88 -22q61 -20 74 -23q39 -12 71 -18q201 262 346 426q123 132 222 221q-221 57 -463 147q-147 53 -289 53q-135 0 -272 -55q-143 -57 -232 -145q-14 -12 -27 0q-14 12 -2 24q100 100 242 156q147 57 291 57q147 0 301 -55q261 -95 485 -154 q145 127 289 199q209 104 416 105q197 0 268 -72q38 -28 38 -88q0 -10 -1 -21q-6 -77 -80 -141q-106 -88 -311 -98q-84 0 -166 4q-70 4 -180 20q-135 20 -262 53l-70 -61q-207 -195 -502 -582q29 -4 66 -4q119 0 225 58q15 12 25 -6t-9 -25q-115 -63 -241 -64q-47 0 -90 7 l-31 -41l-39 -50q-2 -4 -10 -16t-15 -20q-18 -25 -20 -27q-315 -424 -375 -494q-176 -213 -311 -294q-108 -60 -214 -61q-23 0 -46 3q-104 12 -164 74q-55 62 -55 158zM653 908q0 -36 41 -58q45 -25 94 -31q37 -5 66 -5q11 0 20 1q53 0 142 16q86 16 112 31q10 10 22.5 27.5 l29.5 40.5q-2 0 -9.5 3t-19.5 5q-20 4 -29 6l-146 41q-11 4 -13 4q-82 18 -144 19q-166 0 -166 -100zM1851 1628q135 -34 246 -49q109 -14 168 -18q37 -2 158 -2q170 6 266 73q51 27 80 92q10 23 10 46q0 36 -26 71q-57 57 -242 64q-199 0 -397 -101q-138 -72 -263 -176z " />
<glyph unicode="G" horiz-adv-x="1976" d="M49 -16q0 25 2 36q0 6 1 17.5t3 15.5t2 12.5t2 12.5l4 16l3 6q6 14 24 15q20 -4 10 -27q-14 -49 -14 -104q6 -133 96 -191q94 -59 226 -59q133 0 254 55q94 45 182 137l49 56q-138 37 -215 159q-72 109 -72 271q0 309 299 700q227 297 529 516q-6 6 -8.5 12.5t-8.5 12.5 q-29 49 -47 96q-12 35 -22 78l-7 26q-2 16 17 23q18 4 20 -16q20 -115 84 -209l94 65q250 160 457 215q104 25 178 25q86 0 146 -33q55 -37 73 -100q9 -32 10 -65q0 -29 -7 -58q-14 -57 -50 -109q-33 -49 -106 -104q-145 -102 -328 -103q-215 2 -370 113q-59 43 -105 102 l-106 -86q-373 -311 -566 -653q-139 -248 -139 -448q2 -154 66 -250q70 -109 209 -150q63 92 153 250q84 150 180 264q111 135 222 197q84 47 167 49h9q79 0 141 -53q37 -48 37 -102q0 -64 -29 -119q-168 -309 -407 -451q-165 -92 -326 -92q-68 0 -133 16 q-117 -150 -256 -215q-125 -59 -268 -59q-156 0 -258 72q-101 70 -101 215zM956 4q58 -10 113 -10q87 0 164 26q104 39 139 60q230 132 393 436q23 54 24 97q0 47 -28 81q-49 41 -117 41h-10q-70 -2 -143 -45q-80 -47 -143 -115q-119 -119 -244 -331q-99 -172 -148 -240z M1485 1620q33 -45 96 -92q150 -106 348 -107q174 0 303 92q88 68 131 158q21 46 22 89q0 46 -24 89q-39 70 -170 70q-82 0 -170 -25q-251 -65 -536 -274z" />
<glyph unicode="H" horiz-adv-x="1890" d="M-35 -193q0 200 172 431q240 313 727 548l148 451q172 518 338 754l8 12l8 12q-49 18 -51 21q-113 51 -217 172q-14 14 2 26q12 12 24 -2q104 -119 205 -161q40 -18 62 -25q117 152 249 201q46 17 81 17q30 0 53 -13q35 -23 38 -62q0 -6 1 -11q0 -32 -17 -56 q-23 -35 -88 -76q-90 -53 -203 -53q-47 0 -100 12q-3 -6 -12 -18q-2 -2 -5.5 -6.5t-5.5 -6.5t-2 -4q-117 -168 -229 -457q-94 -246 -242 -706q180 82 369 149q211 74 405 170q168 303 365 566l2 2q2 2 4 5t4 7l29 35l37 43q86 98 172 155q76 47 137 48q70 0 113 -45.5 t43 -108.5q-6 -111 -107 -211q-4 -4 -13 -14.5t-22 -20.5q-14 -14 -96 -80q-102 -82 -156 -121q-84 -61 -213 -139q-152 -92 -272 -149q-133 -233 -217 -445q-106 -276 -107 -469q0 -119 44 -211q51 -98 124 -159q74 -51 195 -86q14 -6 12 -23q-2 -18 -22 -14 q-135 41 -205 94q-82 57 -137 172q-47 98 -47 227q0 199 110 482q71 187 191 405q-164 -80 -361 -149q-207 -74 -395 -162l-170 -535l-70 -180q-90 -215 -174 -338q-80 -117 -157 -168q-54 -31 -109 -31l-51 7q-82 23 -133 88q-66 83 -66 204zM2 -193q0 -117 57 -182 q49 -59 113 -74q22 -5 44 -5q44 0 83 22q34 18 80 67q74 84 145 218q94 176 166 385l160 499q-464 -227 -682 -522q-166 -220 -166 -408zM1430 2036q41 -6 75 -6q47 0 94 12q49 12 66 22l23 13q55 35 77 65q14 27 8 47.5t-18 28.5q-18 10 -40 10q-26 0 -60 -14 q-121 -53 -225 -178zM1743 1155q203 104 381 227t241 181q76 70 89 84q98 102 98 186q-4 49 -37 82q-35 35 -82 35q-90 -2 -219 -125q-129 -129 -199 -244l-155 -233q-97 -154 -117 -193z" />
<glyph unicode="I" d="M37 63q0 43 10 89q2 16 20.5 14t14.5 -23q-8 -35 -8 -80q4 -86 53 -135q49 -51 133 -59q16 -1 32 -1q109 0 204 54q92 55 196 166l72 80q39 45 67 82l82 104q25 31 76 103l90 123l90 120l203 277q152 209 238 317q158 201 305 326q-137 43 -146 47q-145 47 -284 47 q-200 0 -369 -92q-88 -49 -141 -102q-12 -14 -27 0q-14 12 0 26q45 47 142 103q186 102 395 102q144 0 295 -49q141 -47 170 -53q61 46 116 80q174 104 365 120q21 1 40 2q200 0 200 -145q-2 -92 -74 -141q-68 -47 -159 -48q-6 0 -11 1q-98 0 -258 32q-100 25 -211 58 q-72 -57 -176 -168q-53 -57 -148 -174q-92 -113 -137 -176l-151 -209l-146 -203q-315 -424 -375 -494q-178 -217 -311 -293q-107 -60 -228 -60q-16 0 -32 1q-92 8 -156 72q-61 61 -61 159zM1993 1634q88 -27 184 -47q139 -33 252 -33q83 6 141 43q57 37 62 109 q-6 108 -156 108q-19 0 -39 -2q-178 -16 -352 -114q-37 -23 -92 -64z" />
<glyph unicode="J" horiz-adv-x="1245" d="M-735 -106q0 98 73 159q72 59 177 60q121 0 280 -74q266 -119 393 -141q92 80 195 198q98 111 180 221l225 306q131 184 185 254q295 406 477 606q98 109 231 231q-291 66 -417 66q-76 0 -134 -8q-51 -8 -92 -17q-29 -6 -32 -8q-18 -3 -25 12q-2 16 12 23q104 35 271 35 q141 -2 452 -74q145 123 285 192q215 106 424 107q176 -10 239 -84q40 -53 41 -113q0 -11 -2 -22q-10 -70 -59 -125q-113 -113 -331 -113q-110 0 -247 29q-104 25 -342 88l-73 -68q-113 -106 -236 -250q-129 -150 -201 -243l-213 -285l-139 -194l-164 -228l-139 -182 q-178 -229 -323 -363q68 -8 141 -8q125 0 229 27q20 4 23 -14q4 -20 -15 -23q-109 -27 -237 -27q-104 0 -176 15q-63 -53 -99 -78q-238 -164 -464 -164q-141 0 -254 74q-117 76 -119 203zM-694 -106q6 -115 112 -177q111 -63 220 -63q225 4 442 156l74 57q-154 37 -373 139 q-154 70 -266 70q-88 -4 -148 -51q-61 -49 -61 -131zM1759 1731q254 -70 314 -82q68 -12 143 -21q78 -8 139 -8q83 0 148 25q61 23 110 75q43 49 51 107q2 12 2 23q0 45 -28 81q-66 74 -213 74q-197 0 -408 -102q-120 -61 -258 -172z" />
<glyph unicode="K" horiz-adv-x="1837" d="M-602 211q0 29 10 90q4 16 23 12q18 -2 14 -20q-10 -37 -10 -82q0 -80 45 -131q47 -51 141 -64q10 -2 43 -2q98 0 193 56q95 58 196 166q119 127 436 555q14 20 24.5 33.5l18.5 23.5l78 106l-7 4q-7 4 -19 13q-18 10 -31 22q-2 2 -10 9.5l-15 13.5q-14 14 -20 33 q-8 25 -8 41q0 52 43 86q45 35 98 34q68 0 135 -30q145 193 211 270q154 186 291 309q-287 57 -559 119q-145 33 -246 33q-106 0 -166 -35q-59 -39 -57 -96q2 -20 -17 -21q-18 -4 -20 17q-4 39 18 75q33 55 103 76q55 20 139 21q109 0 254 -33l559 -121q10 -4 29 -6 q55 46 135 98q168 100 334 107q111 0 147 -64q18 -29 18.5 -71.5t-16.5 -73.5q-52 -93 -216 -94q-19 0 -40 2q-98 6 -352 57q-43 -35 -160 -152q-131 -137 -354 -434q46 -22 74 -43q102 -70 178 -164q190 35 410 152q254 135 532 371l70 63l82 72q98 84 153 108 q56 25 105 25q35 0 67 -12q43 -15 68 -56q27 -43 26 -90q0 -37 -16 -80q-6 -12 -23 -10q-14 2 -10 25q12 37 13 65q0 78 -72 113q-25 8 -53 8q-44 0 -88 -20q-47 -25 -97 -64q-23 -16 -112 -96l-90 -78q-274 -238 -539 -377q-209 -113 -399 -151q94 -123 118 -262 q12 -68 13 -130q0 -92 -23 -217q-20 -125 -20 -178q0 -94 53 -143q42 -42 98 -42q8 0 17 1q72 6 127 39q58 34 104 80q16 10 27 -2q12 -12 0 -25q-52 -52 -117 -86q-72 -37 -144 -43q-8 -1 -15 -1q-70 0 -122 52q-66 59 -65 170q0 59 20 185q23 125 23 210q0 66 -10 123 q-25 129 -125 260q-70 -14 -160 -14q-129 0 -244 39q-4 -6 -84 -115q-340 -457 -373 -493q-180 -217 -313 -293q-100 -61 -211 -62q-37 0 -47 3q-102 12 -164 73q-55 62 -55 158zM537 1090q0 -61 96 -105l121 164q-61 27 -113 27q-37 0 -72 -23q-32 -20 -32 -63zM668 971 q100 -33 221 -33q47 0 133 10q-72 82 -158 142q-47 33 -76 45zM1362 1780q256 -49 319 -51l36 -2q115 0 169 53q23 25 29 63q1 8 1 15q0 26 -15 53q-29 43 -117 45q-156 -4 -316 -103q-32 -20 -106 -73z" />
<glyph unicode="L" d="M37 145q20 57 78 88q55 31 123 31q184 -6 337 -129l84 -82q61 45 121 97q219 193 533 612l211 295l221 305q174 229 321 352q-31 10 -118 41q-96 29 -183 29q-45 0 -65.5 -2t-57.5 -10q-10 -2 -26.5 -7.5l-22.5 -7.5q-33 -8 -43 -12q-25 -8 -32 -12l-21 -11l-8 -4 q-15 -9 -25 6q-12 15 6 25q6 6 37 20.5t107 32.5q74 18 151 19q98 0 195 -31q80 -25 141 -49q35 27 86 59q166 102 355 111h9q100 0 146 -66q23 -37 23 -77q0 -28 -10 -58q-25 -58 -87 -86q-55 -25 -138 -25h-19q-104 10 -228 52l-131 49q-92 -72 -194 -189 q-98 -113 -176 -219l-207 -291l-189 -262q-238 -317 -407 -493q-129 -133 -250 -219l18 -19q4 -4 9.5 -11t7.5 -9q57 -66 106 -115q45 -45 123 -109q68 -55 176 -116q195 -109 365 -109q168 2 233 103q25 46 26 93q0 62 -44 124q-31 39 -51 51q-10 12 -2 26.5t24 4.5l4 -2 q2 0 3 -3.5t6 -5.5l12 -12l14 -14l17 -21q53 -74 53 -148q0 -56 -31 -112q-78 -121 -264 -121q-184 0 -383 113q-184 104 -338 264l-115 127q-18 -14 -94 -55q-126 -61 -233 -62q-82 0 -156 25t-119 88q-26 36 -25 81q0 28 11 62zM61 80q8 -82 91 -119q76 -35 174 -35 q100 0 217 58q43 22 86 49q-59 59 -78 73q-152 121 -313 121q-80 -4 -127 -39q-50 -36 -50 -108zM2142 1726q4 0 15.5 -5t39 -15l54.5 -20q113 -39 217 -50h14q122 0 170 54q34 36 34 74q0 29 -20 61q-40 49 -122 49q-169 -6 -338 -105z" />
<glyph unicode="M" horiz-adv-x="2437" d="M-1135 172q0 123 62 221q12 16 26 4q12 -8 7 -24q-57 -82 -58 -201q0 -117 64 -186q70 -84 217 -95h22q119 0 238 56q123 59 242 162q215 182 536 616q262 354 469 606q266 319 463 451q158 109 285 108q90 -4 90 -90q0 -51 -37 -137q-117 -272 -197 -506 q-78 -225 -116 -469q205 283 446 533q238 246 465 417q199 145 346 205q94 35 160 35q68 -4 88 -37q14 -22 14 -50q0 -53 -51 -130q-195 -285 -369 -680q-248 -547 -266 -961v-2v-26q0 -74 17 -127q23 -86 81 -146q100 -90 244 -90q129 0 230 88q61 53 83 97q10 16 25 8 q13 -6 13 -14q0 -5 -5 -13l-4 -6q-4 -6 -10 -16q-2 -4 -9 -11.5t-10 -11.5l-7 -7t-6 -8t-9 -11q-18 -18 -31 -29q-115 -102 -260 -103q-162 0 -268 101q-47 43 -74 106q-37 94 -37 224q18 418 269 974q182 408 372 684l25 50q14 27 16 51q4 29 -10 43q-16 16 -51 16 q-68 0 -146 -33q-74 -29 -182 -92q-201 -123 -432 -340q-371 -340 -668 -768q-19 -157 -18 -307q0 -53 2 -106q0 -82 -14 -138q-18 -88 -70 -131q-41 -35 -98 -35q-47 0 -82 31q-48 48 -49 123q0 25 6 53q12 90 117 254q39 72 169 271q33 264 115 512q78 238 213 544 q33 74 33 121q-4 53 -53 53q-115 0 -264 -102q-133 -88 -300 -266q-211 -227 -622 -783q-240 -324 -414 -499q-206 -206 -381 -289q-129 -59 -252 -59h-24q-164 10 -244 106q-72 84 -72 211zM879 94q-3 -23 -3 -42q0 -68 33 -101q27 -23 60 -23q47 0 75 27q28 25 43 68 q27 61 27 172q-1 37 -1 74q0 133 9 274q-76 -113 -131 -209q-98 -156 -112 -240z" />
<glyph unicode="N" horiz-adv-x="1884" d="M-733 182q0 129 61 226q8 14 25 4q14 -8 6 -25q-55 -82 -55 -193v-12q0 -80 32 -149q78 -127 246 -127q227 0 488 213q236 195 551 618q295 397 471 609q262 311 440 440q141 104 246 104q86 0 86 -69q0 -31 -25 -80q-4 -12 -84 -160l-143 -272l-129 -271 q-250 -553 -266 -905q0 -9 -1 -17q0 -91 31 -122q13 -11 31 -11q27 0 59 27q27 27 54 66q47 63 133 227q242 446 420 698q102 147 237 299q127 143 205 216q88 80 168 141q88 68 112 80l52 30l80 48q-2 2 -4.5 5t-6.5 7q-2 2 -5 6l-3 4q-55 78 -78 150q-2 14 13 20q5 2 8 2 q11 0 16 -12q31 -76 72 -139l20 -25q2 2 19.5 9t27.5 13q190 90 334 95q72 0 127 -23q61 -29 82 -86q10 -28 10 -54q0 -31 -14 -61q-53 -102 -203 -102q-248 6 -391 162l-145 -86q-70 -43 -164 -123q-272 -225 -539 -598q-106 -150 -207 -315q-84 -139 -182 -322 q-104 -195 -117 -213q-59 -96 -106 -145q-35 -31 -70 -37q-6 -1 -12 -1q-30 0 -59 23q-41 47 -41 164q12 348 270 920q61 141 129 274l141 268l86 162q20 37 21 60q0 36 -49 36q-88 0 -226 -96q-129 -96 -280 -262q-205 -221 -621 -778q-319 -432 -557 -627 q-266 -221 -512 -221q-163 3 -246 98q-69 82 -69 215zM2855 1804q150 -143 358 -143q119 0 158 63q20 29 20 63q0 14 -4 30q-12 51 -65 75q-49 20 -111 21q-129 -4 -301 -82z" />
<glyph unicode="O" horiz-adv-x="1945" d="M41 623q106 395 434 729q274 274 602 420q197 84 379 83q51 0 78 -6q4 0 12 -8q86 35 166 35q117 -4 203 -49q90 -47 139 -135q37 -57 57 -133q4 -20 5 -23q172 -23 237 -102q57 -70 57 -162q0 -104 -59 -182q-88 -119 -311 -142q-139 -303 -414 -559 q-238 -217 -524 -346q-257 -116 -513 -116q-24 0 -48 1q-309 23 -435 215q-85 131 -85 304q0 84 20 176zM78 614q-19 -91 -19 -171q0 -167 82 -287q121 -174 402 -191h35q535 0 1021 451q262 242 400 530h-19q-141 0 -292 51q-147 53 -234 133q-45 45 -74 84 q-94 -96 -155 -217q-8 -14 -25 -6q-14 8 -8 25q66 121 166 231q-68 114 -68 240q10 225 205 332h-39h-24l-338 -80q-332 -154 -592 -414q-320 -322 -424 -711zM1327 1487q0 -113 59 -213q111 104 252 172q213 92 441 92q-25 84 -56 135q-45 78 -131 123q-82 43 -180 43 q-156 -2 -270 -102q-115 -98 -115 -250zM1405 1241q29 -39 74 -84q78 -72 221 -125q141 -49 280 -49q27 0 35 2q86 200 86 363q0 84 -14 153q-14 0 -27 1q-215 0 -405 -91q-141 -68 -250 -170zM2056 987q72 2 150 37q72 31 114 88q53 70 54 160q-2 86 -47 139 q-70 70 -203 88q14 -70 14 -151v-2q-10 -171 -82 -359z" />
<glyph unicode="P" horiz-adv-x="2461" d="M-54 -55q0 13 15 16q16 8 23 -12q18 -82 88 -121q57 -32 127 -32q16 0 32 1q117 16 218 105q94 86 188 235q35 53 188 332q129 233 222 377q230 366 380 553q223 270 451 383q20 12 84 35q-84 31 -201 45q-88 11 -162 11q-19 0 -36 -1q-262 0 -480 -137q41 -61 54 -133 q12 -74 12 -132q0 -111 -41 -174q-45 -70 -124 -70q-7 0 -13 1q-70 4 -103 49q-35 47 -34 117q0 84 57 184q51 92 141 164q-39 47 -82 71q-63 39 -139 64q-23 4 -12 22q2 15 17 15h5q35 -8 88 -35q96 -49 152 -115h2q219 145 500 146q223 0 460 -72q111 33 232 33 q297 0 387 -195q3 -6 3 -10q0 -9 -11 -14q-18 -6 -25 10q-39 88 -139 133q-89 39 -199 39h-16q-102 -4 -170 -18q2 0 8 -2.5t10 -4.5t10.5 -5t8.5 -3q199 -88 297 -223q141 -175 141 -387q0 -194 -111 -356q-111 -164 -292 -263q-154 -84 -315 -84q-25 0 -50 2 q-190 15 -362 142q-47 37 -80 69q-41 41 -54 56l-16 20q-12 14 4 27q12 12 25 -4q18 -25 37 -43q53 -53 106 -94q150 -113 328 -132q29 -3 58 -3q149 0 300 77q169 89 277 246q109 158 108 340q0 121 -59 250q-109 219 -357 325l-86 33q-70 -18 -127 -49q-158 -78 -303 -223 q-201 -201 -514 -699l-110 -184l-115 -205l-90 -164q-172 -298 -289 -399q-109 -96 -237 -115q-20 -2 -40 -2q-74 0 -141 39q-42 25 -75.5 65t-33.5 83zM870 1393q0 -121 101 -129q6 0 11 -1q81 0 112 89q18 45 18 118q0 53 -12 125q-8 63 -45 117q-86 -68 -133 -153 q-52 -94 -52 -166z" />
<glyph unicode="Q" horiz-adv-x="2054" d="M68 78q55 135 251 135q186 -4 361 -78l10 -4q6 -2 23 -10l35 -17q18 -8 45 -24q6 -4 23.5 -14.5l27.5 -16.5l59 -41q27 -18 66 -51q262 113 504 336q227 215 356 446q137 244 145 467q0 117 -26 217q-39 147 -146 228q-152 117 -364 116q-236 -6 -469.5 -128.5 t-382.5 -309.5q-164 -201 -191 -457q-1 -20 -1 -39q0 -212 151 -354q164 -158 403 -157q63 0 131 12q246 45 385 201q125 137 125 315q0 76 -28 156q-41 106 -125 163q-78 47 -174 48h-10q-114 0 -224 -72q-14 -12 -24 4q-12 14 4 27q119 78 254 77q106 0 194 -53 q94 -66 139 -180q31 -82 31 -170q0 -190 -135 -340q-145 -164 -406 -213q-70 -12 -137 -12q-256 0 -430 168q-161 164 -161 379q0 22 1 45q27 268 199 477q164 195 406 321q246 129 475 129q215 0 387 -123q111 -86 157 -247q29 -104 29 -230q-12 -229 -151 -481 q-139 -250 -361 -457q-236 -219 -498 -336q135 -114 252 -264q131 -168 299 -241q117 -51 238 -52q180 4 256 105q28 43 31 98v11q0 49 -23 89q-47 74 -164 74q-55 -2 -114 -14q-14 -8 -23 12q-2 16 12 23l9 2q2 0 5 1l6 2t7 1q4 2 12 3t13 1q6 2 18 3t18 1q12 2 37 2 q145 -4 195 -92q27 -45 26 -119q0 -72 -36 -121q-88 -119 -285 -119q-123 0 -252 54h2q-184 84 -317 254q-114 147 -258 270q-158 -66 -283 -90q-95 -19 -224 -19h-44q-272 14 -342 142q-17 35 -17 70q0 30 13 61zM104 -35q28 -46 86 -74q68 -33 105 -36q46 -6 117 -13 q29 -2 58 -2q218 0 462 101q-138 111 -264 159q-166 76 -349 76q-163 -3 -215 -110q-11 -26 -11 -51t11 -50z" />
<glyph unicode="R" horiz-adv-x="2361" d="M-197 -127q0 14 15 16q20 4 22 -14q16 -72 71.5 -113t133.5 -41q137 0 258 109q92 80 189 236q57 90 182 315l192 334q-78 59 -78 147q4 96 78 127q39 16 85 16q43 0 91 -14q125 190 242 334q219 270 451 385l84 35q-201 53 -400 53q-90 0 -186 -20q-170 -31 -293 -117 q66 -102 66 -264q0 -90 -41 -168q-39 -76 -129 -76q-68 0 -109 47q-41 49 -39 121q0 80 57 182q55 95 142 166q-33 37 -82 70q-59 41 -137 65q-18 2 -15 23q3 13 17 13q3 0 6 -1q16 0 90 -35q90 -43 152 -114v2q92 63 208 98q141 45 293 45q229 0 463 -70q107 31 211 31h18 q303 -2 388 -192q2 -5 2 -10q0 -9 -11 -15q-16 -6 -24 8q-78 172 -355 172q-76 0 -167 -16l6 -2q176 -72 286 -197q147 -168 148 -379q0 -180 -62 -272q-98 -188 -321 -307q-188 -100 -420 -101q-10 0 -88 4q14 -64 14 -146q0 -98 -20 -222l-6 -37q-2 -8 -3 -16.5t-2 -14.5 t-2 -10t-1 -6t-2.5 -16.5t-4.5 -24.5q-4 -41 -4 -47q0 -8 4 -41q2 -16 11 -45q14 -45 55 -76q37 -29 90 -29q113 0 244 121q10 10 24.5 -2t-0.5 -27q-129 -129 -268 -129q-55 0 -109 35q-49 31 -71 94q-14 37 -14 96q0 74 22 181q17 113 17 210q0 85 -13 157 q-138 15 -258 55q-117 39 -174 67q-47 23 -127 76q-29 -47 -279 -491q-160 -283 -288 -400q-132 -117 -283 -116q-86 0 -154 49q-35 26 -61.5 63.5t-26.5 75.5zM725 1321q0 -63 29 -94q31 -35 82 -37h6q62 0 92 57q29 53 35 150q0 152 -60 241q-78 -59 -131 -153 q-53 -96 -53 -164zM823 864.5q0 -73.5 62 -119.5q57 98 137 213q-30 13 -63 13q-30 0 -64 -10q-72 -23 -72 -96.5zM915 723q233 -156 527 -193q-39 113 -125 213q-86 98 -166 152q-39 29 -94 51zM1077 979q59 -27 97 -53q88 -57 172 -158q100 -119 137 -242q86 -4 98 -4 q215 0 401 96q219 121 308 291q57 112 57 238v12q-4 141 -66 258q-100 188 -346 289q-12 6 -55 20q-52 -15 -129 -49q-158 -80 -303 -223q-166 -164 -371 -475z" />
<glyph unicode="S" horiz-adv-x="1927" d="M-449 -31q59 -14 132 -14q129 0 254 59q-121 129 -140 305q-3 32 -3 64q0 137 67 256q94 172 256 172q108 -6 166 -74q59 -70 59 -170q-6 -200 -135 -368q-92 -120 -209 -191l10 -10q2 -2 7 -5l5 -3q186 -143 443 -144q164 0 309 48q137 45 229 114q193 141 279 359 q63 166 82 432q6 111 10 252q6 170 21 303q-193 0 -320 96q-16 12 -4 27q14 14 27 2q113 -88 301 -88q25 197 82 335q162 383 440 383q152 -4 199 -108q23 -54 23 -111q0 -103 -77 -215q-109 -160 -297 -243q-160 -72 -337 -78q-10 -94 -21 -326q-12 -350 -39 -483 q-22 -104 -55 -191q-86 -229 -291 -379q-102 -76 -240 -118q-152 -47 -321 -47q-268 0 -467 151l-31 27q-121 -70 -282 -70q-78 0 -138 14q-15 2 -14 17q-1 24 20 20zM-164 311q18 -164 133 -278q82 49 137 106q197 203 197 430q-2 88 -51 146q-49 59 -135 59 q-147 -16 -223 -149q-61 -120 -62 -249q0 -33 4 -65zM1434 1391q162 6 317 75q182 92 279 228q47 68 61 143q6 31 6 59q0 42 -14 80q-35 96 -164 97q-268 -12 -408 -361q-52 -135 -77 -321z" />
<glyph unicode="T" horiz-adv-x="1646" d="M-213 31q0 31 10 88q2 18 23 14q18 -2 14 -20q-10 -57 -10 -82q0 -82 45 -133q70 -63 184 -64q186 6 389 221q129 139 437 555l24 33.5t19 24.5q287 391 473 598q102 115 223 221q-221 57 -463 147q-147 53 -291 54q-193 0 -362 -95q-33 -20 -47 -30l-19.5 -13.5 l-19.5 -13.5q-4 -4 -13.5 -11t-13.5 -12q-6 -6 -11 -10t-9 -8q-6 -6 -9 -6q-12 -10 -26 -2q-12 12 0 26q47 49 141 107q176 104 389 104q152 0 303 -55q250 -90 486 -151q365 303 704 303l103 -6q41 -4 84 -21q51 -20 75 -51q35 -46 35 -96q0 -17 -4 -33q-16 -70 -70 -115 q-119 -100 -372 -100q-229 0 -547 78l-68 -62q-125 -119 -235 -250q-154 -184 -195 -237l-213 -283q-340 -457 -372 -493q-70 -84 -152 -170q-59 -61 -166 -125q-100 -59 -207 -60q-147 0 -211 76q-55 62 -55 158zM1696 1505q297 -70 512 -69h14q220 0 330 88q51 41 63 96 q3 12 3 24q0 37 -27 76q-55 57 -234 64q-325 -5 -661 -279z" />
<glyph unicode="U" horiz-adv-x="1845" d="M-297 1792q83 104 307 104q135 0 271 -36q106 -31 213 -76q115 -49 170 -70q172 -70 358 -88q4 4 8 7t9 8.5t18.5 17.5t34.5 29q41 37 86 71q29 23 82 47q55 27 96 29h15q54 0 87 -23q41 -29 41 -86q0 -59 -51 -92q-47 -31 -121 -43q-79 -9 -164 -9q-63 0 -129 5 q-176 -143 -305 -272q-326 -319 -506 -678q-111 -219 -110 -395q0 -193 131 -303q115 -94 272 -95h10q235 0 414 140q182 141 291 378q92 217 235 453q80 129 123 184q125 164 254 287q133 127 241.5 201t201.5 121q90 47 141 63q49 16 51 17q20 6 23 -13q1 -4 0 -7 q0 -13 -13 -15q-31 -8 -41 -13q-8 -4 -16 -7t-12 -5t-6 -2q-86 -35 -201 -102q-336 -203 -594 -545q-88 -119 -199 -317q-145 -264 -217 -476q-61 -182 -61 -298q0 -148 98 -189q42 -18 84 -18q56 0 111 32q94 57 143 166q49 111 49 221q0 14 16 21q14 0 21 -17 q0 -86 -31 -178q-29 -88 -86 -164q-55 -74 -139 -104q-35 -13 -75 -13q-51 0 -109 21q-119 47 -120 219q0 111 50 275q-129 -174 -274 -262q-147 -90 -363 -91q-172 0 -295 103q-145 117 -145 332q0 182 114 411q174 350 512 688q141 135 281 252q-166 23 -334 86l-162 66 q-143 59 -217 80q-135 35 -260 35q-205 0 -278 -93q-39 -47 -41 -106q0 -5 -1 -10q0 -56 34 -103q66 -78 194 -86q18 -4 19 -20q0 -18 -21 -17q-41 4 -82 15q-92 31 -137 84q-45 54 -45 124q0 83 51 144zM1075 1622q48 -5 97 -5q73 0 149 11q141 18 141 98q0 72 -88 73 q-7 0 -14 -1q-41 -4 -80 -22q-47 -23 -68 -39q-39 -29 -75 -62z" />
<glyph unicode="V" horiz-adv-x="2351" d="M-342 -178q0 57 53 104q88 70 236 70q70 0 180 -16q0 2 2 4q57 160 203 436q133 252 280 461q274 373 461 549q53 51 129 112q-158 23 -330 86q-72 29 -122 51l-138 56q-55 23 -118 39q-135 35 -261 34q-100 0 -163 -20q-133 -51 -152 -152q-2 -17 -2 -33q0 -64 31 -104 q23 -33 73 -57q70 -31 121 -31q18 -2 19 -20q0 -16 -21 -17q-41 4 -82 15q-92 31 -137 84q-42 57 -42 128q0 20 3 41q29 115 127 160q92 43 225 43q135 0 271 -37q70 -18 121 -39l139 -57l123 -49q195 -74 356 -88l152 121q100 82 184 88h15q53 0 87 -21q39 -25 39 -73 q0 -6 1 -12q0 -69 -66 -107q-80 -39 -277 -39q-63 0 -125 6q-102 -86 -155 -135q-201 -195 -455 -545q-147 -205 -281 -455q-131 -248 -198 -430q365 -72 639 -71q442 0 807 301q600 498 753 1691q0 16 21 17q16 -4 16 -21q-156 -1206 -768 -1716q-371 -309 -829 -309 q-324 10 -656 74q-47 -98 -112 -158q-80 -74 -213 -76q-72 0 -115 29q-47 31 -49 88zM-305 -178q4 -41 41 -62q39 -20 86 -20q119 6 188 67q45 43 101 138q-98 14 -164 14q-135 0 -211 -61q-41 -35 -41 -76zM1296 1571q18 -2 82 -2q199 0 258 35q48 25 48 74q0 6 -1 12 q-8 58 -84 58q-8 0 -16 -1q-78 -10 -164 -80z" />
<glyph unicode="W" horiz-adv-x="3192" d="M-174 -172q6 53 51 92q52 43 129 62q78 19 133 18h15q23 0 71.5 -3t73.5 -5q66 178 203 432q143 268 276 448q264 362 461 551q53 51 129 113q-160 20 -330 86q-43 16 -170 68q-143 59 -209 77q-135 35 -260 35q-203 -2 -278 -94q-39 -52 -39 -118q0 -53 31 -101 q27 -39 90 -61.5t104 -22.5q16 0 17 -21q-4 -16 -19 -16q-33 0 -82 14q-100 33 -139 82q-41 55 -41 125v10q3 74 49 136q92 104 307 104q137 0 269 -37q98 -27 217 -78q138 -58 166 -67q168 -70 356 -88l76 61q66 55 86 70q45 33 80 49q51 27 96 29q13 1 24 1q76 0 105 -55 q13 -31 13 -57q0 -61 -68 -102q-76 -39 -275 -39q-66 0 -125 6q-102 -86 -155 -135q-199 -188 -457 -545q-139 -197 -272 -442q-139 -260 -199 -420q295 -27 414 -27q395 0 718 232q244 172 416 469q0 14 2 18q12 109 56 543q23 252 112 379q36 51 83 51h5q55 -4 56 -90v-23 q0 -4 -2.5 -10t-2.5 -8v-11q-76 -510 -274 -860q-14 -125 -39 -258q-25 -131 -59 -223q-63 -164 -172 -324q66 -4 86 -4q152 0 280 33q162 39 334 156q176 121 326 315q383 502 403 1307q0 18 18.5 18t18.5 -20q-18 -808 -412 -1327q-156 -203 -334 -324t-344 -162 q-137 -33 -290 -33q-68 0 -109 7q-92 -125 -174 -162q-49 -25 -102 -31q-9 -1 -18 -1q-40 0 -75 22q-43 27 -43 90q0 56 48 86q43 27 118 41q41 6 88 6q65 0 140 -12l32 49q82 125 146 284q35 82 57 217l29 170q-156 -248 -381 -407q-338 -240 -741 -240q-117 2 -426 27 q-47 -115 -125 -178q-76 -59 -172 -76q-22 -4 -43 -4q-66 0 -117 37q-42 34 -42 83q0 6 1 13zM-135 -174q-1 -6 -1 -12q0 -27 21 -52q47 -31 103 -30q20 0 41 4q84 16 145 65q61 43 111 154q-69 8 -127 8q-176 0 -256 -72q-31 -26 -37 -65zM1251 -274q4 -39 23 -54 q20 -14 53 -14q23 0 59 8q27 6 52 19q80 40 147 135q-60 9 -112 9q-46 0 -89 -7q-53 -6 -92 -29q-41 -22 -41 -67zM1462 1565q70 -4 82 -4q193 0 256 36q49 29 49 72q-6 72 -92 72h-8q-35 -6 -66 -19q-25 -10 -63 -36l-53 -37q-8 -6 -56 -45q-24 -21 -49 -39zM1931 754 q162 328 228 780q2 21 2 37q0 49 -21 51h-4q-19 0 -37 -20q-18 -18 -45 -76q-53 -109 -76 -305z" />
<glyph unicode="X" horiz-adv-x="1990" d="M-584 276q16 158 115 256q171 177 491 177h44q18 0 16 -21q-2 -14 -19 -14q-347 0 -503 -166q-47 -47 -80 -133q-26 -67 -26 -142q0 -15 1 -30q6 -90 66 -154q147 -154 448 -153q309 0 635 221q180 125 285 241q215 254 364 527q160 289 168 534q1 10 1 20q0 108 -60 208 q-84 127 -262 153q-76 12 -146 12q-215 0 -356 -112q-123 -98 -158 -250q-15 -63 -15 -117q0 -85 38 -151q53 -92 158 -127q53 -18 104 -18q55 0 106 20q141 45 175 213q2 18 20 14q18 -2 14 -20q-25 -151 -147 -222q-73 -40 -157 -40q-45 0 -93 12q-137 33 -209 145 q-45 77 -45 177q0 57 14 122q37 163 172 271q150 121 379 120q72 0 152 -12q199 -33 287 -170q61 -96 65 -248q-2 -170 -108 -422q120 163 264 308q240 240 512 362q141 63 291 64q145 0 237 -68q94 -70 94 -207l-4 -53q-2 -18 -22 -14q-14 2 -15 20q4 37 5 47 q0 117 -82 178q-80 59 -213 60q-138 0 -277 -62q-260 -113 -500 -352q-119 -121 -215 -244q-285 -362 -376 -729q-14 -50 -14 -108q0 -38 5 -80q14 -113 74 -180q100 -113 258 -113q100 0 192.5 49t135.5 137q27 49 33 121q1 10 1 20q0 52 -26 111q-27 63 -90 84 q-36 13 -74 14q-27 0 -55 -8q-71 -18 -117 -73q-12 -16 -26 -5q-10 10 -3 27q43 57 127 84q36 11 73 11l87 -15q70 -25 105 -94q33 -66 33 -135q0 -6 -1 -11q-4 -80 -32 -145q-47 -96 -148 -152q-104 -57 -215 -57q-172 0 -285 125q-87 98 -87 269q0 61 12 132q25 98 80 236 q-63 -88 -174 -217l-13 -12l-37 -37q-16 -16 -57 -54q-33 -29 -78 -65q-31 -25 -92 -70q-348 -238 -672 -237q-322 0 -471 159q-84 95 -84 219q0 19 2 39z" />
<glyph unicode="Y" horiz-adv-x="1884" d="M-168 -289q-2 16 14 23q84 16 174 102l29 29q-47 100 -47 194q0 106 39 172q43 68 102 68q47 0 76 -41q29 -43 27 -100q0 -135 -152 -299q49 -90 146 -152q144 -86 331 -86q170 0 322 90q147 88 250 246l272 432q-29 -29 -37 -35q-195 -164 -403 -164q-115 0 -213 41 q-117 53 -168 150q-39 72 -39 172q0 172 125 408q129 246 278 413q143 160 328 314q-162 23 -330 84q-20 8 -122 53q-80 35 -138 55q-88 31 -118 39q-142 37 -256 37q-93 0 -168 -25q-70 -23 -111 -71q-45 -55 -45 -121q0 -141 227 -185q18 0 19 -18q-2 -18 -21 -18l-10 2 q-9 3 -31 6q-29 4 -41 8q-74 20 -129 76q-51 51 -51 129q0 139 131 209q92 45 222 44q120 0 274 -38q70 -18 121 -39q98 -39 139 -57l121 -52q180 -68 358 -86q6 2 41 35l47 39q4 4 14.5 12.5l28.5 22.5q10 8 53 37q6 4 18.5 11l29.5 17q14 8 53 23q23 8 51 12q13 2 24 2 q52 0 84.5 -32.5t32.5 -74.5q0 -10 -2 -20q-8 -55 -63 -88q-68 -43 -195 -45q-22 -1 -43 0q-97 0 -164 10q-195 -156 -338 -317q-156 -174 -286 -422q-121 -223 -121 -389q0 -90 35 -156q35 -61 90 -98q102 -72 258 -72q199 0 379 156q115 100 227 254l313 457 q123 174 260 309q137 133 244 203q117 76 199 112q100 45 137 54q47 10 53 10q20 2 21 -15q4 -16 -17 -22l-32 -8q-35 -8 -39 -11q-84 -25 -197 -88q-324 -184 -598 -565l-221 -317q-51 -82 -92 -140q-274 -408 -438 -677q-109 -164 -261 -258q-156 -96 -342 -97 q-199 0 -350 90q-96 59 -153 156q-41 -41 -84 -72q-63 -49 -131 -61q-21 -2 -21 14zM39 57q0 -88 39 -163q131 150 131 264q0 35 -16 71q-14 33 -50 33q-39 0 -69 -49q-33 -47 -35 -156zM1380 1716q76 -7 136 -6q140 0 202 37q48 25 49 66q0 13 -6 28q-19 52 -76 53 q-8 0 -18 -2q-33 -2 -80 -26q-47 -23 -67 -39q-14 -10 -72 -58z" />
<glyph unicode="Z" horiz-adv-x="2381" d="M-143 150q68 105 262 104q86 0 196 -21q121 -25 273 -65q59 53 119 113q238 233 495 538l66 80l-346 31q-20 2 -17 20q0 18 21 17l368 -33l136 186q104 144 165 221q88 113 162 187q-442 66 -780 194q-4 2 -29.5 11.5t-44.5 17.5l-78 33q-27 10 -75 20q-51 10 -84 11 q-127 0 -189 -113q-33 -57 -33 -139q0 -84 33 -170q18 -51 35 -82q12 -15 -6 -25q-15 -12 -25 6q-18 35 -37 82q-37 98 -36 189q0 84 36 155q74 133 222 133q35 0 86 -10q35 -6 75 -20q37 -12 88 -33l76 -31q353 -132 799 -196q156 150 313 213q172 70 291 69q58 0 105 -18 q51 -18 73 -72q12 -28 12.5 -55.5t-12.5 -55.5q-20 -43 -57 -69q-106 -82 -358 -82q-176 0 -355 31q-92 -95 -178 -203q-31 -39 -162 -219l-125 -170l426 -41q18 0 19 -21q-4 -16 -19 -16h-2l-450 43q-47 -66 -80 -100q-250 -289 -426 -467q-92 -96 -176 -172 q90 -25 321 -109q213 -78 336 -113q341 -92 553 -92q272 0 344 140q28 52 28 129q0 40 -7 88q-4 18 14 20q18 4 20 -14q12 -51 13 -98q0 -78 -35 -144q-84 -158 -377 -158q-233 0 -561 95q-125 35 -336 112q-201 74 -344 115q-160 -141 -270 -207q-121 -70 -275 -70 q-152 0 -200 89q-27 45 -27 94q0 62 31 117zM-127 100q-10 -31 -10 -61q0 -43 20 -82q51 -70 170 -70q125 0 256 66q88 49 246 186q-117 31 -248 58q-109 21 -191 21q-194 0 -243 -118zM1837 1552q133 -25 320 -24q184 0 288 47q70 33 95 82q8 20 7.5 39.5t-7.5 38.5 q-15 37 -56 55q-39 16 -90 16q-111 0 -276 -67q-144 -58 -281 -187z" />
<glyph unicode="[" horiz-adv-x="1079" d="M49 -442l1510 2326q8 8 16 8h291q18 0 18 -18.5t-18 -18.5h-283l-1485 -2289h303q18 0 18.5 -18.5t-18.5 -18.5h-335q-10 0 -17 10q-6 10 0 19z" />
<glyph unicode="\" horiz-adv-x="989" d="M172 2079q-4 20 14 22q20 4 23 -14l479 -2529q2 -16 -14 -23h-4q-12 0 -19 14z" />
<glyph unicode="]" d="M-279 -393.5q0 18.5 19 18.5h283l1484 2290h-303q-18 0 -18 18.5t18 18.5h336q12 0 16 -10q6 -9 0 -19l-1509 -2326q-8 -8 -16 -9h-291q-19 0 -19 18.5z" />
<glyph unicode="^" horiz-adv-x="1652" d="M131 1157q-2 14 16 21q10 0 50 8q82 18 145 35q117 31 209 63q481 168 887 479q10 10 22.5 2t5.5 -22q0 -2 -14 -39q-14 -41 -29 -96q-20 -82 -26 -125q-10 -76 -8 -131q2 -63 28 -109q33 -55 101 -65q16 -4 16 -23q-2 -14 -18 -14h-5q-84 12 -125 84q-83 147 25 473 q-406 -299 -850 -449q-82 -31 -211 -65q-74 -20 -147 -35q-41 -8 -51 -8q-15 -2 -21 16z" />
<glyph unicode="_" horiz-adv-x="1331" d="M27 18.5q0 18.5 18 18.5h1239q18 0 18.5 -18.5t-18.5 -18.5h-1239q-18 0 -18 18.5z" />
<glyph unicode="`" horiz-adv-x="878" d="M47 2165q0 18 18.5 18t18.5 -18q0 -37 16 -97q39 -113 115 -182q82 -74 176 -104q98 -31 209 -43q115 -12 213 2q14 0 21 -17q0 -20 -19 -20q-61 -6 -123 -6q-219 0 -395 90t-231 272q-19 59 -19 105z" />
<glyph unicode="a" horiz-adv-x="1814" d="M-66 233q-2 16 -1 32q0 206 290 454q203 172 406 260q195 88 375 88q92 0 155 -20q8 -2 43 -15q29 -10 72 -51q43 -40 55 -92q5 -21 5 -43q0 -136 -181 -330q2 2 6 5t7 5l3 2q82 59 174 119q90 59 141.5 90t53.5 31q15 12 25 -6q12 -15 -7 -25l-20 -12l-57 -35l-80 -51 l-101 -66q-74 -49 -106 -73q-158 -119 -246 -207q-106 -113 -100 -176q3 -46 61 -68q61 -23 119 -22q168 0 379 125q217 129 412 311q16 14 26 -2q5 -8 5 -14.5t-5 -12.5q-494 -444 -815 -444q-78 0 -147 28q-72 30 -72 106q0 64 74 152q-137 -113 -256 -186 q-205 -127 -363 -127q-132 0 -221 74q-91 73 -109 196zM-29 238q12 -111 94 -174.5t199 -63.5q80 0 170 31q86 31 191 102q117 80 163 117q47 35 170 137q340 279 340 457q0 19 -4 37q-8 41 -47 75q-33 31 -65 45q-23 10 -33 11q-68 18 -145 18q-170 0 -369 -90 q-209 -94 -387 -250q-160 -133 -232 -262q-46 -85 -46 -164q0 -13 1 -26z" />
<glyph unicode="b" horiz-adv-x="1394" d="M-2 240q-8 35 -8 74q0 153 112 372q109 217 342 528q176 229 373 449q174 195 275 287q115 102 192 129q22 7 39 7q30 0 51 -22q32 -29 32 -77q0 -45 -28 -105q-10 -25 -24 -47l-27 -41q-10 -12 -10 -18q-246 -356 -682 -820l-389 -393q-86 -86 -211 -160 q-11 -48 -11 -88q0 -32 7 -61q0 -4 10 -39q8 -25 41 -82q29 -47 78 -84q72 -49 176 -48q59 0 129 15q195 47 354 226q119 131 164 293q-43 27 -80 75q-57 72 -69 146q-3 19 -4 36q0 69 59 105q29 17 54 17q32 0 61 -27q39 -35 43 -117q1 -22 1 -44q0 -93 -22 -175 q89 -41 174 -41q38 0 76 8q121 27 223 117q16 8 27 -2q4 -7 4 -13q0 -7 -6 -14q-115 -100 -234 -125q-53 -12 -102 -11q-96 0 -172 44q-49 -164 -170 -297q-168 -184 -373 -235q-71 -18 -135 -18q-111 0 -197 54q-118 75 -143 222zM47 455q92 57 174 135l47 47l148 145 l192 199q426 451 678 815l10 14q10 16 31 54q18 33 29 61q12 33 12 66q0 31 -18 49q-12 12 -29 12q-61 0 -205 -131q-90 -80 -274 -285q-186 -207 -367 -444q-350 -458 -428 -737zM870 762q10 -63 62 -129q27 -35 61 -60q18 83 18 158q0 20 -1 39q-4 47 -19 74 q-18 33 -51 33q-45 0 -59 -35q-12 -28 -12 -58q-1 -11 1 -22z" />
<glyph unicode="c" horiz-adv-x="1443" d="M-51 195q-3 19 -3 38q0 78 46 183q55 123 170 252q119 131 252 217q141 90 266 121q93 20 157 20q27 0 50 -4q72 -12 108 -59q29 -49 29 -91q0 -49 -25 -92q-8 -14 -26 -8q-14 8 -6 25q22 40 22 74q0 37 -24 69q-35 50 -129 50q-61 0 -148 -21q-123 -27 -256 -115 q-131 -84 -244 -211q-106 -119 -161 -237q-44 -96 -45 -169q0 -19 4 -36q8 -70 73.5 -113t133.5 -49q12 -2 60 -6l73 -6q27 -1 43 -2q26 0 30 4h2q111 0 328 55q377 94 698 367q14 12 27 -2q6 -7 6 -14t-8 -13q-182 -147 -379 -248q-168 -84 -336 -127q-217 -55 -334 -55 h-12h-26q-4 0 -16.5 -1t-16.5 -1q-66 0 -137 10q-221 39 -246 195z" />
<glyph unicode="d" horiz-adv-x="1808" d="M-59 238l-2 28q0 209 290 457q410 350 772 350q270 0 318 -151q7 -24 7 -52q0 -46 -19 -100l307 428l309 395q139 168 186 205q41 32 77 32q15 0 30 -5q18 -8 29 -21q16 -20 18 -26l4 -13q3 -12 3 -26q0 -118 -208 -334q-168 -174 -512 -475l-229 -205 q-200 -292 -326 -522q-28 -53 -28 -91q0 -27 14 -46q21 -28 81 -28q52 0 134 21q201 51 420 226q123 96 192 166q14 14 27 2q12 -14 0 -27q-86 -86 -195 -170q-236 -178 -434 -231q-80 -23 -141 -23q-78 0 -113 41q-6 8 -14 29q-6 14 -6 32q0 12 4 33l6 31l8 25q0 4 4 10 t4 8l5 8q78 145 174 293q-68 -74 -148 -150q-184 -174 -348 -276q-193 -119 -362 -119q-132 0 -228 74t-110 197zM-23 242q10 -111 95 -174q88 -66 209 -66q268 0 684 387q325 306 325 479q0 23 -6 43q-37 125 -283 125q-344 0 -747 -342q-278 -232 -278 -425q0 -13 1 -27z M1411 856l115 100q384 338 510 474q198 209 198 310q0 9 -2 17q-6 29 -32 35q-5 1 -10 1q-24 0 -60 -26q-35 -29 -178 -200q-147 -176 -310 -391z" />
<glyph unicode="e" horiz-adv-x="1435" d="M-43 227q-2 25 -2 50q0 113 45 219q57 133 137 213q-61 34 -61 36q-14 8 -6 25q12 16 26 4q25 -15 68 -37q15 18 49 49l47 45q272 262 571 304q32 4 61 3q141 0 236 -87q66 -60 66 -136q0 -58 -39 -124q-68 -115 -211 -173q-133 -54 -260 -53h-27q-215 8 -419 97l-66 28 q-47 -41 -96 -133q-43 -82 -72 -178q-14 -50 -14 -101q0 -43 10 -85q20 -86 104 -136q70 -39 162 -45q26 -2 53 -1q73 0 148 12q94 14 176 36q92 25 131 41q176 72 338 166q150 88 334 246q16 8 27 -2q4 -6 4 -12q0 -7 -7 -15q-199 -166 -340 -247q-166 -96 -344 -168 q-115 -43 -223 -66q-106 -23 -256 -22q-135 0 -223 47q-115 65 -127 200zM197 719l55 -25q199 -82 405 -92q13 -1 26 0q126 0 249 55q137 61 192 154q28 55 29 102q0 31 -12 58q-31 70 -117 106q-63 27 -131 27q-27 0 -55 -4q-137 -18 -265 -82q-131 -66 -290 -213l-25 -25 l-33 -32q-4 -4 -10 -9.5t-10 -10.5t-8 -9z" />
<glyph unicode="f" horiz-adv-x="1042" d="M-977 -1130q-9 20 -9 49q0 76 60 217q53 121 88 174q154 299 828 1139l299 370q684 836 997 1188q63 66 126 66q13 0 26 -2q59 -10 84 -64q18 -38 17 -84q0 -12 -1 -25q-6 -57 -16 -100q-10 -41 -15 -49q-86 -250 -336 -512q-267 -283 -718 -578q-145 -96 -433 -231 l-172 -217q66 -66 146 -96q100 -39 220 -39q228 0 531 141q188 88 353 227q16 14 26.5 -2t-2.5 -26q-169 -141 -362 -234q-315 -141 -551 -141q-127 0 -232 41q-74 28 -122 74q5 -54 4 -109q0 -268 -115 -539q-133 -322 -348 -530q-164 -156 -287 -156q-66 1 -86 48z M-942 -1116q10 -16 31 -23q14 -3 28 -3q100 0 252 147q209 197 346 526q107 258 108 510q0 64 -7 127q-496 -635 -621 -875q-57 -102 -88 -172q-56 -129 -56 -196q0 -25 7 -41zM74 494q231 115 358 196q862 565 1041 1071q6 6 14 41q6 27 14 92q2 13 2 26q0 38 -14 73 q-14 37 -59 43q-6 1 -12 0q-52 0 -103 -54q-8 -10 -28.5 -33.5l-59.5 -69.5l-76 -87l-371 -438l-463 -557z" />
<glyph unicode="g" horiz-adv-x="1560" d="M-575 -1155q-13 24 -13 54q0 71 72 173q84 117 254 262q395 342 895 607l74 106q55 84 139 178q-133 -102 -199 -141q-207 -127 -364 -127q-126 0 -222 74q-94 72 -106 196q-2 16 -2 33q0 207 289 453q414 350 772 350q74 0 135 -12.5t123 -55.5q57 -41 78 -112 q5 -21 4 -44q0 -126 -148 -292q190 129 307 186q18 6 25 -10q6 -14 -8 -25q-6 0 -37 -16l-104 -59q-51 -29 -140 -91q-313 -217 -512 -505q-33 -45 -35 -50q145 68 195 84q145 53 309 150q154 92 250 160q86 61 96 71q18 12 27 -2q5 -6 5 -12q0 -7 -9 -14q-80 -63 -207 -148 q-254 -164 -457 -237q-102 -37 -254 -115q-184 -264 -409 -541q-274 -334 -441 -475q-12 -12 -43 -35q-41 -31 -98 -57q-65 -31 -117 -31q-87 0 -124 70zM-543 -1137q29 -51 80 -53h11q46 0 96 25q49 25 92 53q31 20 47 37q154 135 367 387q229 272 434 563 q-455 -250 -824 -569q-178 -156 -245 -254q-65 -95 -66 -152q0 -21 8 -37zM-8 231q12 -108 92 -172q78 -61 199 -65q83 0 172 31q84 29 192 102q98 66 162 117q59 45 170 137q338 282 338 457q0 19 -4 36q-18 83 -105 117q-88 35 -194 35q-344 0 -748 -340 q-162 -137 -229 -264q-47 -85 -47 -159q0 -16 2 -32z" />
<glyph unicode="h" horiz-adv-x="1585" d="M-242 8q119 309 363 690l133 199l10 14q137 197 340 453q233 293 447 514q193 205 262 240q44 21 83 21q22 0 44 -7q47 -16 71 -64q6 -8 11 -32q4 -20 4 -33q0 -20 -2 -31l-6 -30q-2 -10 -11 -27q-2 -2 -5 -10.5t-5 -12.5l-8 -16l-6 -12l-4 -6q-164 -221 -607 -564 q-256 -193 -581 -409q-274 -399 -422 -709q158 217 194 262q158 197 299 336q178 174 324 248q2 2 23 10q37 16 61.5 24.5t83.5 22.5q66 11 111 11q23 0 43 -3q86 -10 149 -61q74 -61 74 -153q0 -79 -49 -175q-52 -101 -92 -147q-41 -47 -72 -78q-76 -76 -139 -160 q-116 -145 -116 -213q0 -11 3 -20q12 -23 49 -29q17 -2 34 -2q121 0 288 94q178 102 456 338q14 12 27 -2q6 -7 6 -14q0 -8 -8 -12q-274 -231 -465 -342q-169 -98 -305 -98q-19 0 -37 1q-68 6 -82 56q-4 13 -4 29q0 84 125 237q14 20 106 119q66 70 121 137q43 53 82 135 q35 76 35 143q0 79 -59 129q-65 54 -154 55q-13 0 -27 -1q-104 -10 -172 -33q-76 -27 -80 -31q-256 -127 -610 -575q-119 -152 -153 -203l-111 -162q-37 -55 -37 -57zM350 967q840 565 1098 913q4 4 18 29q8 16 23 63q4 15 4 29q0 26 -14 51q-21 51 -76 51h-6q-28 0 -68 -18 q-61 -29 -262 -242q-223 -238 -434 -504q-121 -145 -283 -372z" />
<glyph unicode="i" horiz-adv-x="876" d="M-127 102q-7 23 -7 51q0 32 9 72q16 76 64 156l84 141q59 90 96 137q6 8 20 29l142 195q78 102 118 149l23.5 27.5l17.5 20.5l6 7q8 14 27 3q14 -8 2 -27l-6 -7l-17.5 -20.5l-23.5 -27.5q-8 -8 -119 -150q-77 -98 -141 -190q-168 -244 -215 -342q-49 -103 -49 -176 q0 -21 4 -39q18 -66 151 -66q166 0 385 121q223 123 418 293q16 14 27 -2q4 -7 4 -13q0 -7 -6 -14q-500 -422 -828 -422q-166 0 -186 94zM545 1350q0 43 30 69q33 29 70 29q39 0 68 -29q31 -31 30 -69q0 -37 -28 -70q-27 -31 -70 -31q-39 0 -69.5 31t-30.5 70z" />
<glyph unicode="j" horiz-adv-x="649" d="M-1364 -1124q-5 21 -5 42q0 70 54 146q113 158 324 313q193 141 542 353q55 84 293 473l252 428l193 332q61 106 67 122q12 15 25 7q16 -6 8 -25q-4 -12 -67 -121l-193 -334l-254 -430l-252 -409l70 41l354 211q115 70 301 200q170 119 293 236q14 14 27 0q6 -6 6 -12.5 t-6 -14.5q-115 -106 -295 -235q-137 -100 -305 -203l-357 -215l-131 -78q-344 -543 -549 -766q-160 -160 -268 -160q-107 1 -127 99zM-1327 -1114q10 -43 35 -60q21 -14 46 -13q8 0 17 1q39 6 70 21q35 16 59 35q47 37 53 43l37 36l13 13q186 201 505 698 q-287 -174 -491 -324q-195 -143 -303 -294q-46 -63 -47 -119q1 -19 6 -37zM406 1352q0 41 30 71q29 29 70 29q43 0 69 -29q29 -33 29 -71q0 -43 -29 -70q-33 -29 -69.5 -29t-69.5 29q-30 29 -30 70z" />
<glyph unicode="k" horiz-adv-x="1372" d="M-195 -10q74 200 301 590q147 254 416 641l160 227l145 203l113 153l82 107l27 37q18 27 45 55q35 37 102 82q70 45 133 45h2q76 -2 129 -76q21 -29 22 -69q0 -56 -42 -138q-55 -109 -183 -250q-145 -164 -383 -374l-280 -228q102 37 184 60q114 28 200 27q97 0 161 -35 q88 -49 100 -146q2 -16 2 -32q0 -81 -53 -144q-55 -74 -168 -125t-227 -61q-28 -2 -58 -3q-110 0 -246 35q-53 14 -120 41q-18 -61 -33 -153q-9 -64 -9 -118q0 -118 42 -196q70 -132 250 -132q61 0 135 16q109 23 262 121q143 90 350 278q14 14 27 0q8 -14 -2 -27 q-393 -362 -631 -407q-81 -16 -148 -16q-86 0 -149 26q-76 33 -127 125q-45 90 -45 219q0 55 8 117q4 31 16 88q4 16 11.5 39.5t7.5 28.5l6 22l6 19l21 -9l8 -4q18 -6 22 -8q14 -6 33 -12l21.5 -7.5t23.5 -7.5t25.5 -8t28 -8t30 -5t27.5 -5q39 -8 65 -10l68 -7q25 0 69 4 q121 10 216 56q104 51 155 117q42 52 43 120q0 13 -2 27q-8 82 -80 119q-45 27 -121 30q-13 1 -25 1q-57 0 -116 -11q-76 -14 -135 -33q-53 -16 -102 -34q-12 -4 -25.5 -10.5t-15.5 -6.5q-272 -113 -519 -524q-141 -243 -221 -449zM303 825q311 219 547 426q236 205 381 371 q127 141 176 242q37 70 37 119q0 30 -14 51q-41 57 -101 59q-117 0 -252 -168l-524 -727z" />
<glyph unicode="l" horiz-adv-x="1089" d="M-82 289q115 328 508 923l170 244l129 180q41 55 47 62q0 4 27 33l78 84q52 55 104 98q106 92 186 125q56 25 103 25q45 0 80 -23q57 -37 63 -111q1 -9 1 -17q0 -139 -179 -390q-169 -230 -387 -424q-255 -224 -793 -590q-55 -111 -102 -234q-2 -6 -5 -19t-5 -19 q-3 -14 -4 -38q0 -15 2 -38q4 -55 30 -86q55 -59 151 -59q61 0 138 24q246 74 432 172q188 100 393 260q16 8 27 -2q12 -14 -2 -27q-215 -164 -408 -268q-190 -102 -434 -172q-63 -20 -151 -20q-117 0 -174 67q-46 51 -46 126q0 52 21 114zM90 575q526 367 733 551 q223 199 383 418q170 234 171 368q0 7 -1 13q-4 57 -47 84q-26 17 -61 17q-100 0 -262 -140l-64 -59l-55 -55l-45 -48q-10 -10 -31 -34l-10 -15l-49 -65l-129 -178l-166 -240q-232 -357 -367 -617z" />
<glyph unicode="m" horiz-adv-x="2533" d="M-514 -10l84 86l188 190q108 108 154 160q392 436 392 554q0 6 -1 11q-6 14 -20 21q-15 6 -13 24q5 12 16 12q4 0 9 -1q37 -16 43 -50q2 -8 2 -17q0 -79 -117 -237q-61 -90 -178 -223l57 47q274 231 521 371q143 80 243 102q71 18 126 18q141 0 179 -118q9 -31 10 -68 q0 -101 -69 -247q-14 -33 -59 -113q2 2 8 9t10 11l19 19q229 229 419 352q201 128 366 128q24 0 48 -3q104 -14 135 -88q11 -28 12 -62q0 -167 -276 -479q-152 -177 -152 -262q0 -21 9 -37q29 -47 106 -53q16 -1 33 -1q56 0 113 15q74 20 125 43q238 102 497 353q14 14 27 0 q6 -6 6 -12.5t-6 -14.5q-283 -266 -512 -360q-74 -31 -148 -50q-46 -12 -99 -11q-28 0 -58 3q-82 8 -117 70q-12 22 -13 51q0 35 19 80q29 78 143 211q176 203 236 338q29 65 29 114q0 27 -9 50q-12 27 -38 45q-25 16 -43 20q-20 4 -23 4q-19 2 -39 2q-154 0 -352 -125 q-188 -121 -412 -348q-96 -96 -194 -209q-33 -35 -127 -155q-90 -115 -138 -168l-28 22q34 34 264 326q121 166 186 301q64 132 64 226q0 34 -8 63q-10 33 -25 49q-18 20 -33 27l-12 6q-35 12 -77 11q-118 0 -294 -89q-248 -125 -569 -395q-182 -147 -361 -324l-251 -250z " />
<glyph unicode="n" horiz-adv-x="1744" d="M-354 8l153 209q90 121 170 244q274 410 275 523q0 13 -4 22q-6 16 8 24q16 6 24 -8q7 -14 7 -34q0 -66 -70 -204q-78 -143 -182 -305l90 92q250 244 475 361q219 114 412 114q62 0 122 -12q113 -25 142 -102q8 -25 8 -41q0 -14 -4 -43q-2 -14 -10 -43q-6 -18 -17 -41 q-4 -6 -10 -18.5t-10 -18.5t-11.5 -18.5t-9.5 -14.5l-16 -26q-8 -12 -14 -19l-7 -6l-20 -29l-62 -79q-27 -35 -71 -101q-124 -193 -125 -297q0 -17 4 -33q9 -43 55 -61q24 -9 55 -9q142 0 420 195q84 57 158 117l48 38l46.5 37l30.5 25q41 35 41 39q16 14 27 -2q4 -7 4 -13 q0 -7 -6 -13q-151 -135 -326 -258q-293 -201 -445 -201q-40 0 -67 12q-61 25 -78 86q-4 18 -4 39q0 115 131 320l72 102l61 82l25 27l35 45q14 18 47 98q16 40 16 73q0 20 -6 38q-18 59 -115 77q-58 12 -119 12q-380 0 -856 -462q-160 -156 -313 -352q-154 -200 -154 -209z " />
<glyph unicode="o" horiz-adv-x="1771" d="M-37 258q-2 14 -1.5 26.5t1.5 24.5q0 8 1 21.5t3 19.5q0 6 1 15.5t3 13.5l2 10q51 197 260 402q180 174 367 258q158 68 274 73q19 1 38 1q86 0 157 -23l31 -13q6 -2 15 -7t11 -7l25 -12q4 -2 10 -8t8 -9q4 -4 9.5 -7t7.5 -5l10 -10l8 -8l6 -6l2 -4q6 -12 0 -23 q29 -6 48 -29q22 -24 22 -69q0 -30 -10 -70q-27 -94 -131 -242q-70 -92 -109 -135q137 -132 320 -131h24q205 10 383 152q14 12 27 -4q4 -7 4 -13t-6 -12q-182 -139 -373 -158q-25 -2 -49 -2q-89 0 -174 27q-102 33 -180 113q-43 -49 -115 -117q-164 -152 -309 -228 q-158 -84 -295 -83h-21q-172 10 -250 114q-18 25 -30 56q-14 35 -19 55q0 2 -6 53zM2 332q-1 -11 -1 -26q0 -32 5 -73q10 -74 43 -118q71 -92 221 -99q13 -1 27 -1q113 0 252 71q156 80 317 231q59 55 121 123q-25 41 -37 90q-12 54 -12 110.5t12 113.5q20 94 70 151 q53 66 127 78q8 2 33 2q-51 61 -125 82q-63 20 -135 20q-139 0 -306 -73q-172 -76 -366 -260q-188 -178 -238 -375l-3 -19q-3 -18 -5 -28zM985 745q-12 -58 -12 -110q0 -92 39 -166q193 223 225 356q6 32 6 56q0 33 -12 49q-14 18 -51 18q-71 -3 -123 -55q-49 -50 -72 -148z " />
<glyph unicode="p" horiz-adv-x="1822" d="M-1018 -1051q12 123 146 365q147 270 352 553q244 330 518 616q236 242 477 432l92 166q29 53 72 123l20 37q6 10 13 10q5 0 12 -4q18 -9 6 -24q0 -2 -139 -250q217 176 518 176q224 0 326 -123q63 -76 69 -172q1 -12 1 -24q0 -80 -38 -160q-45 -94 -104 -170 q-76 -96 -135 -150q-255 -227 -553 -289q-72 -14 -129 -14q55 -14 84 -16q59 -6 186 -11h16q86 0 205 29q135 33 256 82q137 55 283 152q170 113 309 237q14 12 27 0q6 -7 6 -14q0 -8 -8 -12q-360 -324 -721 -443q-197 -65 -406 -67q-80 0 -159 12q-139 18 -269 72 q-131 41 -221 125l-422 -674q-261 -393 -399 -535l-8 -8l-14.5 -14.5l-16.5 -16.5q-29 -25 -84 -61q-53 -35 -94 -35q-75 3 -75 78q-1 10 1 22zM-981 -1055q-1 -9 -1 -16q0 -43 40 -43q66 0 188 123q252 258 863 1278l317 542q-487 -399 -915 -985q-209 -287 -347 -544 q-133 -253 -145 -355zM115 225q74 -74 213 -123q71 -18 151 -18q71 0 148 14q293 59 536 281q88 80 129 135q51 68 94 158q37 77 38 159q0 6 -1 13q-2 84 -59 160q-84 109 -295 108q-74 0 -145 -12q-74 -12 -115 -27q-53 -18 -102 -45q-66 -37 -78 -45q-4 -2 -16.5 -10 t-26 -18.5l-27.5 -20.5l-55 -43l-365 -625z" />
<glyph unicode="q" horiz-adv-x="1632" d="M-6 270q-2 16 -2 33q0 208 291 453q414 348 770 348q293 0 336 -180q5 -20 5 -43q0 -95 -96 -228l97 62q141 78 268 94q20 2 20 -14q2 -20 -16 -21q-215 -31 -477 -250q-10 -8 -82 -75l-96 -97l-41 -43l-8 -10q2 -2 2 -12q-20 -221 -101 -463q-72 -211 -182 -414 q-94 -170 -213 -321q-115 -147 -215 -213q-80 -53 -133 -54q-70 4 -96 64q-12 18 -13 50q0 13 2 28q6 47 13 69q6 25 12 33q109 227 518 774l342 439q-115 -92 -213 -152q-205 -127 -364 -127q-126 0 -222 74q-94 73 -106 196zM31 274q12 -109 94 -172q84 -66 197 -65 q83 0 172 31q82 29 190 100q86 57 164 117l170 137q4 4 19.5 16.5t25.5 22.5q45 41 47 43q245 229 245 376q0 18 -3 35q-35 152 -299 152q-350 0 -748 -340q-162 -137 -229 -264q-46 -83 -47 -161zM57 -1100q27 -41 70 -41h6q43 2 98 45q95 74 209 215q115 143 209 310 q225 408 275 823q-694 -874 -852 -1200q-27 -56 -27 -99q-1 -29 12 -53z" />
<glyph unicode="r" horiz-adv-x="1333" d="M8 430q-4 7 -4 13q0 7 6 14q221 199 432 544q4 4 7 9q0 2 1 5t3 5l2 4q-58 43 -58 110q0 14 2 29q8 63 70 64q47 0 66 -43q4 -13 3 -29q0 -47 -34 -121q84 -47 227 -53q119 0 143 -51q8 -15 9 -34q0 -36 -33 -85l-94 -129q-190 -254 -260 -385q-53 -111 -60 -178 q-1 -13 -1 -25q0 -125 149 -125q66 0 192 45q240 84 500 244q16 10 24 -4q3 -6 4 -11q0 -8 -10 -16q-270 -168 -506 -247q-139 -47 -217 -48h-10q-86 3 -129 56q-34 42 -34 105q0 14 1 30q6 80 64 190q59 119 262 392q31 37 94 126q27 38 27 63q0 10 -4 17q-18 33 -109 33 q-27 0 -49 2q-33 2 -94 19q-63 16 -103 36q-10 -12 -12 -20q-186 -324 -440 -553q-17 -14 -27 2zM438 1155q-1 -5 0 -12q0 -20 6 -43q8 -31 29 -43q29 58 29 91q0 13 -4 21q-8 20 -31 21q-23 -4 -29 -35z" />
<glyph unicode="s" horiz-adv-x="1105" d="M-18 444q-6 6 -6 12q0 7 8 13q10 10 82 74l215 186l247 209q0 211 72 276q34 32 72 33q16 0 33 -6q41 -12 49 -51q3 -12 3 -24q0 -36 -26 -79q-35 -55 -65 -83q-20 -18 -88 -72q-6 -4 -13 -10v-13q4 -98 17 -198q13 -115 12 -189v-26q70 29 123 47q74 25 96 30l35 11 q164 48 303 48q23 0 45 -1q18 0 18 -18.5t-18 -18.5q-21 1 -42 1q-129 0 -296 -46q-133 -39 -264 -94v-23q0 -6 -1 -12t-1 -8q-18 -304 -135 -406q-50 -42 -125 -42q-14 0 -29 1q-96 10 -129 80q-16 34 -16 73q0 43 20 89q55 133 369 268q4 0 6 2l4 2v23q0 57 -12 203 q-6 66 -15 186q-461 -387 -522 -449q-16 -14 -26 2zM207 61q27 -55 108 -61q11 -1 22 -1q63 0 97 34q111 96 123 407q-297 -123 -346 -250q-17 -42 -17 -75q0 -30 13 -54zM565 967q43 29 88 73q68 73 68 122q0 9 -2 18q-6 20 -29 26q-7 2 -14 2q-24 0 -51 -22 q-54 -47 -60 -219z" />
<glyph unicode="t" horiz-adv-x="1357" d="M-51 422q-3 6 -4 11q0 8 10 18l324 274l319 258l127 102q-207 0 -446 25q-18 4 -18.5 20.5t18.5 16.5q20 0 34 -2q221 -18 430 -25q410 768 598 1014q37 49 64 70q12 8 26 8q10 0 21 -4q10 -8 16 -19q4 -11 5 -26q0 -40 -29 -111q-115 -295 -426 -688 q-129 -158 -207 -246q108 -1 186 -1q160 0 267 5q18 0 18 -18.5t-18 -18.5q-133 -6 -275 -6q-18 0 -211 4q-2 -2 -6 -7t-8 -9l-14 -14l-193 -367l-151 -293q-51 -100 -52 -104q0 -2 -4 -7.5t-6 -9.5q-4 -6 -14 -43l-17 -59q-6 -31 -4 -61q4 -35 21 -56q37 -50 140 -50 q44 0 99 9q164 29 342 127q184 101 283 178q117 90 182 150q16 14 27 -2q10 -14 -2 -27q-174 -156 -377 -280q-238 -145 -449 -183q-68 -10 -104 -10q-123 0 -170 68q-27 35 -29 80q-1 8 0 15q0 37 11 75q8 31 22 67q8 23 17 35l38.5 74l139 264.5l200.5 378.5 q-8 -4 -168 -133l-339 -279q-182 -152 -213 -188q-19 -18 -31 0zM821 1186l168 200q350 438 438 728q10 33 11 49q0 7 -2 10t-5 3t-8 -3q-10 -8 -53 -62q-154 -198 -549 -925z" />
<glyph unicode="u" horiz-adv-x="1716" d="M-82 274q70 186 301 521l105 147l84 115l28 37q8 8 16 8q5 0 11 -4q16 -12 4 -27l-14 -18l-41 -54l-58 -77l-69 -97l-76 -110l-78 -119q-27 -41 -72 -119q-31 -51 -61 -115q-35 -70 -45 -100q-20 -57 -20 -98.5t20 -67.5q35 -45 104 -47h18q66 0 136 21q80 23 143 49 q57 23 107 49q309 166 622 506l93 110l94 113q18 23 29.5 36t22.5 29.5t24 32.5q18 25 34.5 42.5t24.5 29.5l20 29l29 -25l-344 -424q-168 -209 -242 -381q-38 -80 -38 -138q0 -29 10 -52q24 -58 116 -59q13 0 27 1q94 8 207 66q231 113 498 371q14 12 26 0q6 -8 6 -14.5 t-6 -12.5q-264 -254 -508 -377q-139 -68 -252 -69q-5 0 -10 -1q-69 0 -113 37q-38 33 -38 93q0 12 2 24q10 82 41 146q55 113 118 208l-47 -43q-219 -201 -434 -313q-225 -119 -391 -119q-113 0 -158 60q-28 36 -28 90q0 48 22 110z" />
<glyph unicode="v" horiz-adv-x="1757" d="M-68 168q0 74 45 172q74 162 189 350q135 225 135 308q0 31 -18 42q-8 6 -27 11q-14 2 -27 0q-16 -4 -26 -8.5t-27 -16.5l-24 -18l-21 -21l-10 -10t-8 -10q-4 -4 -8.5 -10.5t-6.5 -8.5q-6 -6 -8 -10l-4 -6q-8 -14 -25 -4q-15 9 -6 24l4 6q2 2 5.5 7.5t5.5 7.5q4 6 16 18 q2 2 9 10.5t11 12.5q2 2 7.5 8l9.5 10t8 6q59 51 111 52q32 0 61 -19q31 -23 31 -72q0 -61 -49 -168q-31 -70 -117 -210q-94 -158 -158 -297q-42 -92 -41 -158q0 -55 29 -90q48 -60 133 -60q24 0 51 4q330 51 627 367q203 215 311 465q-84 74 -84 195q-3 61 31 98 q27 30 71 30q8 0 17 -1q41 -6 59 -50q7 -22 8 -50q0 -81 -57 -210q49 -33 121 -49q35 -8 72 -8q67 0 141 24q119 39 182 82q74 49 125 97q12 14 27 0q6 -7 6 -14t-8 -13q-98 -86 -225 -154q-127 -59 -239 -58q-46 0 -89 9q-76 16 -127 49q-117 -252 -315 -469 q-127 -133 -277 -229q-197 -125 -371 -145q-23 -3 -45 -4q-80 0 -141 41q-74 49 -70 145zM1075 1047q0 -96 62 -158q48 122 48 185q0 21 -5 36q-10 23 -33 27q-5 1 -10 0q-20 0 -35 -11q-27 -19 -27 -69v-10z" />
<glyph unicode="w" horiz-adv-x="1943" d="M-94 172q20 211 227 573l92 154q55 92 74 117l29 37q8 14 24 4q14 -8 4 -25l-26 -39l-74 -114l-92 -152q-199 -346 -219 -559q-1 -11 -1 -21q0 -79 62 -104q33 -13 73 -13q85 0 208 58q45 23 114 68q51 35 111 90q55 51 98 96q66 70 99 117l86 116q20 27 84 127l45 74 l28 45l72 121l63 107l31 -21q-162 -283 -237 -471q-100 -243 -101 -380q0 -73 29 -116q41 -56 131 -56q26 0 55 5q197 27 396 256q137 156 247 381q-55 57 -63 148q-2 20 -2 40q0 76 29 142q44 102 116 101q8 0 17 -1q28 -6 43 -30q11 -21 11 -55q0 -51 -26 -130 q-31 -102 -80 -205q49 -37 128 -36q81 0 194 38q52 18 104 43q51 25 78 39.5t27 16.5q14 6 27 -6q2 -5 2 -10q0 -9 -9 -17q-160 -82 -217 -100q-106 -35 -188 -41q-7 0 -14 -1q-92 0 -148 40q-117 -229 -250 -381q-98 -114 -196 -179q-111 -74 -220 -90q-34 -6 -61 -6 q-113 0 -162 74q-34 51 -33 135q0 148 101 395l16 37q-145 -215 -270 -346t-289 -207q-131 -62 -226 -62q-47 0 -85 15q-87 38 -88 138zM1612 799q6 -70 43 -115q6 18 14 35l10 23.5t7 13.5q66 162 66 236q0 23 -7 36q-9 12 -25 12q-49 0 -84 -77q-27 -57 -27 -123 q0 -20 3 -41z" />
<glyph unicode="x" horiz-adv-x="1536" d="M-203 -70q25 25 62 56l182 153l258 205q150 115 281 203q2 6 7 25.5t16 55.5l22 72q35 123 45 183q7 36 7 61q0 38 -15 47q-15 12 -46 13q-80 0 -276 -89q-129 -57 -360 -190q-15 -9 -25 6q-8 14 6 27q201 117 365 192q125 55 209 76q48 12 83 12q43 0 66 -18 q29 -23 29 -80q0 -28 -6 -63q-6 -27 -80 -297l184 122q317 201 592 320q16 6 24 -8q6 -16 -8 -25q-377 -168 -809 -465q-54 -196 -53 -317q0 -85 27 -131q31 -51 96 -68q34 -8 72 -8q121 0 295 82q215 104 479 334q14 10 26 -2q6 -6 6 -12q0 -7 -8 -13q-260 -229 -489 -340 q-176 -86 -309 -86q-49 0 -80 8q-80 18 -121 86q-33 55 -33 152q0 113 45 283q-106 -72 -241 -179l-259 -202l-178 -152q-52 -46 -61 -55l-12 -4q-8 0 -14.5 6t-6.5 12t6 12z" />
<glyph unicode="y" horiz-adv-x="1613" d="M-473 -1044q16 72 70 135q129 158 370 344q193 147 449 299q86 53 243 141l220 397q-279 -209 -494 -264q-84 -22 -154 -21q-112 0 -192 54q-78 49 -90 139q-3 20 -3 41q0 178 206 449q94 127 237 241q143 117 311 179q5 2 9 1q10 0 16 -12q6 -14 -10 -24 q-299 -111 -533 -406q-8 -8 -59 -80q-43 -59 -98 -184q-41 -92 -42 -166q0 -18 3 -35q12 -74 73 -112q71 -48 171 -48q66 0 145 21q240 63 549 307l180 326l72 129l63 117q4 6 33 59q20 45 69 74q26 16 50 15q19 0 36 -9q20 -12 29 -25q11 -16 11 -56q0 -8 -1 -17 q-4 -59 -41 -129q-37 -78 -153.5 -207t-249.5 -242q-8 -8 -33 -27q-16 -12 -37 -32l-233 -422q229 121 235 121l19 10q6 2 51 26l33.5 17.5t46.5 25.5l102 62q104 66 121 76l137 92q66 47 144 110q16 10 24 -2q6 -7 6 -14q0 -8 -8 -12q-63 -53 -145 -111q-74 -53 -137 -94 l-121 -78q-58 -37 -105 -61l-78 -43q-18 -10 -33.5 -17.5t-21.5 -9.5l-18 -10l-285 -148l-8 -16q-186 -344 -459 -655q-343 -391 -556 -392h-3q-82 2 -115 52q-23 34 -23 78q0 21 5 43zM-437 -1097q0 -33 21 -56q25 -27 78 -27q98 0 248 109q132 98 283 270q258 299 434 615 q-104 -57 -193 -111q-584 -352 -809 -635q-28 -34 -43 -74q-19 -48 -19 -91zM999 416q138 120 246 239.5t148 196.5q42 84 42 130q0 35 -24 48q-12 7 -23 7q-39 0 -83 -70q-6 -8 -9.5 -14.5l-9.5 -17.5l-16 -30l-64 -117l-71 -129z" />
<glyph unicode="z" horiz-adv-x="1388" d="M-532 -1075q12 104 157 262q120 129 344 307q287 219 582 393q-2 37 -19 72q-27 55 -96 98q-68 41 -108 54q-43 12 -56 12l-57 10l51 25q2 0 41 20q31 16 115 66q63 37 141 90q303 213 359 409q11 39 11 78q0 56 -24 113q-41 96 -131 115q-22 5 -47 4q-57 0 -127 -23 q-96 -33 -158 -67q-63 -37 -67 -41q-92 -59 -164 -127q-8 -14 -27 -2q-8 14 0 26q74 74 170 133q221 139 371 139q30 0 57 -6q109 -25 156 -135q27 -65 27 -129q0 -44 -13 -88q-61 -211 -372 -430q-109 -76 -256 -156q178 -55 237 -172q16 -31 21 -67q135 76 225 121 q37 18 152 82q96 53 139 82l121 81l100 74l78 58l49 40l18 17q12 12 25 -2q8 -5 8 -11t-8 -14q-18 -18 -88 -74q-68 -53 -244 -172q-160 -109 -334 -194q-123 -61 -237 -129q-2 -74 -41 -148q-115 -238 -395 -546q-299 -326 -502 -379q-27 -7 -52 -7q-50 0 -85 27 q-48 36 -48 97q0 7 1 14zM-496 -1079q-2 -57 39 -82q28 -16 61 -16q19 0 40 6q184 45 483 368q272 301 389 539q29 61 35 108q-313 -188 -559 -379q-217 -172 -340 -305q-138 -149 -148 -239z" />
<glyph unicode="{" horiz-adv-x="899" d="M125 -152q0 86 39 144q37 55 112 119q219 176 291 282q71 104 74 258q0 27 -4 41.5t-16 38.5q-6 12 -23 33l-25 29q-4 4 -28 24l-16.5 11.5t-12.5 9.5q-4 4 -12 9t-10 5q-12 8 -17 10l-6 4q-12 2 -12 19q4 16 16 16q78 0 182 68q190 125 248 413q63 332 254 510 q163 147 375 148q18 0 18 -18.5t-18 -18.5q-221 0 -379 -168q-154 -164 -213 -461q-33 -164 -113 -282q-65 -95 -153 -154q-57 -37 -148 -64q143 -82 150 -223q2 -68 -16 -139q-16 -61 -46 -115q-23 -41 -84 -106.5t-94 -91.5l-112 -97q-10 -6 -16.5 -12t-8.5 -8 q-137 -111 -137 -229q0 -129 108 -179q23 -10 17 -22q-6 -16 -25 -10q-70 25 -104.5 84t-34.5 122z" />
<glyph unicode="|" d="M68 -432l1665 2601q8 14 26 4q14 -8 4 -25l-1665 -2601q-6 -8 -16 -8q-8 0 -10 2q-16 13 -4 27z" />
<glyph unicode="}" horiz-adv-x="1409" d="M-117 -280.5q0 18.5 19 18.5q219 0 377 168q157 166 215 461q33 164 112 282q65 95 154 154q63 41 147 63q-143 82 -149 224q-2 61 18 139q18 70 43 114q23 41 84.5 107t93.5 92l113 96q8 6 14 12.5t11 8.5q137 111 137 229q0 129 -109 178q-23 10 -16 23q6 16 24 10 q70 -25 105 -84t35 -123q0 -88 -37 -143q-39 -57 -115 -119q-219 -176 -291 -282q-71 -104 -73 -258q0 -20 6 -41q10 -33 12 -39q4 -6 23 -31q8 -8 14 -16.5t14 -14.5q12 -14 27 -26q6 -4 14 -10.5t13 -8.5l24 -14q12 -8 16 -10l7 -5q12 -3 12 -18q-4 -16 -16 -16 q-78 0 -183 -68q-190 -125 -248 -414q-63 -332 -254 -510q-163 -147 -374 -147q-19 0 -19 18.5z" />
<glyph unicode="~" horiz-adv-x="901" d="M72 1751v37q0 14 4 31q2 14 4 22l2 10q6 15 24 13q15 -6 13 -25q-2 -2 -8 -24q-6 -25 -5 -58q4 -37 19 -57q25 -33 82 -33q55 0 119 35q51 29 106 76q43 37 107 65q61 28 123 12q115 -27 147 -122q6 -18 6 -88q-2 -18 -22 -15q-18 2 -15 23q2 2 2 16q0 20 -2 34.5 t-14 43.5q-8 18 -39 43q-25 18 -72 29q-61 14 -135 -33q-27 -18 -51.5 -32.5t-46 -29l-55.5 -38.5q-80 -55 -158 -56q-80 0 -113 49q-14 23 -16 33q-6 21 -6 39z" />
<glyph unicode="&#xa2;" horiz-adv-x="1675" d="M51 -489l260 407q-76 27 -123 96q-66 96 -65 265q0 117 35 243q94 324 327 621q215 270 463 422q238 145 449 145q49 0 61 -2l260 403q8 12 25 7q18 -8 6 -27l-250 -389q121 -20 162 -98q23 -35 18 -86q-2 -41 -14 -88q-8 -33 -31 -78q-14 -29 -35 -60q-4 -6 -9 -15 t-7 -11q-12 -16 -27 -4q-14 8 -4 24q10 10 33 53q29 55 51 121q25 72 -8 127q-39 68 -149 82l-1108 -1730l43 -7q299 -25 485 131q49 41 74 74q31 40 43 62q10 18 10 24q8 14 25 8q16 -10 10 -22q-55 -106 -137 -174q-90 -72 -201 -109q-115 -35 -234 -35q-43 0 -77 5 q-39 2 -62 10l-266 -416q-8 -8 -16 -8q-2 0 -4 1q-3 1 -7 3q-14 9 -6 25zM164 365q-10 -82 2 -172q12 -98 53 -156q45 -66 113 -88l1104 1722q-6 2 -35 2h-4q-207 -4 -443 -149q-236 -147 -440 -404q-225 -285 -321 -610q-19 -57 -29 -145z" />
<glyph unicode="&#xa3;" horiz-adv-x="2574" d="M168 20q6 59 39 105q43 61 114.5 83.5t153.5 2.5q92 -23 148 -45q92 -37 155 -68q20 -12 43 -20q150 150 336 424q61 88 84 129l-434 39q-16 4 -16 20q2 20 20 17l453 -41q86 137 129 219l-463 43q-16 0 -17 18q2 18 21 17l475 -43l152 266q35 59 133 207q82 123 153 200 q129 139 260 201q152 68 312 29q145 -35 188 -127q18 -41 19 -88q0 -53 -5 -68l-10 -31q-10 -18 -24 -10q-16 8 -11 25q2 2 9 24q6 20 6 60q0 45 -17 71q-41 78 -166 109q-270 68 -534 -219q-43 -46 -86 -105l-40 -52l-36 -48q-6 -8 -74 -117q-43 -68 -63 -106l-66 -119 l-59 -107l416 -38q18 0 16 -21q0 -16 -18 -16h-2l-432 41q-20 -39 -125 -219l438 -41q16 0 16 -21q0 -16 -18 -16h-2l-457 43q-39 -68 -94 -146q-104 -160 -230 -309l-100 -113l47 -20q12 -6 26.5 -12.5l23 -10.5l12.5 -6l63 -26q41 -18 76 -27q14 -4 73.5 -22.5t80.5 -20.5 q6 0 31.5 -3l41.5 -5q47 -4 74 2q33 6 66 18q39 14 57 31q14 14 26 -2q12 -12 -2 -25q-55 -45 -130.5 -57t-157.5 4q-100 20 -148 39q-80 29 -157 64q-98 41 -132 53q-117 -117 -274 -193q-154 -74 -272 -10q-121 65 -115 190zM205 18q-2 -104 94 -155q100 -51 244 16 q145 70 252 170q-2 0 -4 2q-264 125 -371 131q-72 6 -141 -41q-68 -46 -74 -123z" />
<glyph unicode="&#xad;" horiz-adv-x="1464" d="M96 639q0 18 19 18h1239q18 0 18 -18t-18 -18h-1239q-19 0 -19 18z" />
<glyph unicode="&#xb4;" horiz-adv-x="1032" d="M29 1679q2 18 20 15q229 -29 475 39q244 66 457 202q16 10 27 -4q8 -14 -7 -26q-473 -299 -958 -248q-18 2 -14 22z" />
<glyph unicode="&#x2000;" horiz-adv-x="1130" />
<glyph unicode="&#x2001;" horiz-adv-x="2263" />
<glyph unicode="&#x2002;" horiz-adv-x="1130" />
<glyph unicode="&#x2003;" horiz-adv-x="2263" />
<glyph unicode="&#x2004;" horiz-adv-x="753" />
<glyph unicode="&#x2005;" horiz-adv-x="565" />
<glyph unicode="&#x2006;" horiz-adv-x="376" />
<glyph unicode="&#x2007;" horiz-adv-x="376" />
<glyph unicode="&#x2008;" horiz-adv-x="282" />
<glyph unicode="&#x2009;" horiz-adv-x="450" />
<glyph unicode="&#x200a;" horiz-adv-x="124" />
<glyph unicode="&#x2010;" horiz-adv-x="1464" d="M96 639q0 18 19 18h1239q18 0 18 -18t-18 -18h-1239q-19 0 -19 18z" />
<glyph unicode="&#x2011;" horiz-adv-x="1464" d="M96 639q0 18 19 18h1239q18 0 18 -18t-18 -18h-1239q-19 0 -19 18z" />
<glyph unicode="&#x2012;" horiz-adv-x="1464" d="M96 639q0 18 19 18h1239q18 0 18 -18t-18 -18h-1239q-19 0 -19 18z" />
<glyph unicode="&#x2013;" horiz-adv-x="1024" d="M96 621v36h834v-36h-834z" />
<glyph unicode="&#x2014;" horiz-adv-x="2048" d="M96 621v36h1858v-36h-1858z" />
<glyph unicode="&#x2018;" horiz-adv-x="468" d="M106 1174l281 563q8 18 25 8q16 -6 8 -25l-281 -563q-4 -10 -16 -10q-6 0 -8 2q-15 9 -9 25z" />
<glyph unicode="&#x2019;" horiz-adv-x="479" d="M106 1174l281 563q8 18 25 8q16 -6 8 -25l-281 -563q-4 -10 -16 -10q-6 0 -8 2q-15 9 -9 25z" />
<glyph unicode="&#x201c;" horiz-adv-x="641" d="M106 1174l281 563q8 18 25 8q16 -6 8 -25l-281 -563q-4 -10 -16 -10q-6 0 -8 2q-15 9 -9 25zM285 1174l280 563q8 18 25 8q16 -6 8 -25l-281 -563q-4 -10 -16 -10q-6 0 -8 2q-16 11 -8 25z" />
<glyph unicode="&#x201d;" horiz-adv-x="667" d="M106 1174l281 563q8 18 25 8q16 -6 8 -25l-281 -563q-4 -10 -16 -10q-6 0 -8 2q-15 9 -9 25zM285 1174l280 563q8 18 25 8q16 -6 8 -25l-281 -563q-4 -10 -16 -10q-6 0 -8 2q-16 11 -8 25z" />
<glyph unicode="&#x2022;" horiz-adv-x="583" d="M104 641q0 80 56 139q55 57 139 58q82 0 139.5 -57.5t57.5 -139.5q0 -80 -57.5 -137.5t-139.5 -57.5q-84 0 -139.5 55.5t-55.5 139.5z" />
<glyph unicode="&#x2026;" horiz-adv-x="1366" d="M1069 94q0 47 34.5 82t79.5 35q47 0 82 -35t35 -82q0 -45 -35 -79.5t-82 -34.5q-45 0 -79.5 34.5t-34.5 79.5zM615 94q0 47 34.5 82t79.5 35q47 0 82 -35t35 -82q0 -45 -35 -79.5t-82 -34.5q-45 0 -79.5 34.5t-34.5 79.5zM158 94q0 47 34.5 82t79.5 35q47 0 82 -35 t35 -82q0 -45 -35 -79.5t-82 -34.5q-45 0 -79.5 34.5t-34.5 79.5z" />
<glyph unicode="&#x202f;" horiz-adv-x="450" />
<glyph unicode="&#x205f;" horiz-adv-x="565" />
<glyph unicode="&#x20ac;" horiz-adv-x="1669" d="M-272 706.5q0 18.5 18 18.5h1239q18 0 18.5 -18.5t-18.5 -18.5h-1239q-18 0 -18 18.5zM-20 1134.5q0 18.5 18 18.5h1239q18 0 18 -18.5t-18 -18.5h-1239q-18 0 -18 18.5zM84 389q0 309 299 701q219 287 526 516q-76 106 -90 225q-2 18 15 20q16 4 20 -18q25 -123 86 -205 q37 29 94 66q250 160 457 215q104 25 176 24q160 0 213 -121q51 -117 -41 -243q-72 -100 -188 -152q-121 -53 -244 -55q-213 0 -371 113q-68 47 -104 102l-109 -86q-367 -303 -565 -653q-59 -109 -88 -203q-35 -115 -47 -227q-12 -117 31 -215q43 -100 145 -150 q213 -102 502 39q291 141 461 403q8 14 26 7q16 -12 4 -27q-106 -164 -274 -295q-166 -129 -359 -186q-195 -57 -378 26q-197 92 -197 379zM961 1597q41 -49 96 -92q162 -119 350 -106q268 12 403 190q82 113 37 209q-45 98 -180 98q-78 0 -168 -24q-251 -64 -538 -275z" />
<glyph unicode="&#x2122;" horiz-adv-x="4085" d="M514 172q0 123 62 221q12 16 26 4q12 -8 7 -24q-57 -82 -58 -201q0 -117 64 -186q70 -84 217 -95h22q119 0 238 56q123 59 242 162q215 182 536 616q262 354 469 606q266 319 463 451q158 109 285 108q90 -4 90 -90q0 -51 -37 -137q-117 -272 -197 -506 q-78 -225 -116 -469q205 283 446 533q238 246 465 417q199 145 346 205q94 35 160 35q68 -4 88 -37q14 -22 14 -50q0 -53 -51 -130q-195 -285 -369 -680q-248 -547 -266 -961v-2v-26q0 -74 17 -127q23 -86 81 -146q100 -90 244 -90q129 0 230 88q61 53 83 97q10 16 25 8 q13 -6 13 -14q0 -5 -5 -13l-4 -6q-4 -6 -10 -16q-2 -4 -9 -11.5t-10 -11.5l-7 -7t-6 -8t-9 -11q-18 -18 -31 -29q-115 -102 -260 -103q-162 0 -268 101q-47 43 -74 106q-37 94 -37 224q18 418 269 974q182 408 372 684l25 50q14 27 16 51q4 29 -10 43q-16 16 -51 16 q-68 0 -146 -33q-74 -29 -182 -92q-201 -123 -432 -340q-371 -340 -668 -768q-19 -157 -18 -307q0 -53 2 -106q0 -82 -14 -138q-18 -88 -70 -131q-41 -35 -98 -35q-47 0 -82 31q-48 48 -49 123q0 25 6 53q12 90 117 254q39 72 169 271q33 264 115 512q78 238 213 544 q33 74 33 121q-4 53 -53 53q-115 0 -264 -102q-133 -88 -300 -266q-211 -227 -622 -783q-240 -324 -414 -499q-206 -206 -381 -289q-129 -59 -252 -59h-24q-164 10 -244 106q-72 84 -72 211zM2528 94q-3 -23 -3 -42q0 -68 33 -101q27 -23 60 -23q47 0 75 27q28 25 43 68 q27 61 27 172q-1 37 -1 74q0 133 9 274q-76 -113 -131 -209q-98 -156 -112 -240zM-213 31q0 31 10 88q2 18 23 14q18 -2 14 -20q-10 -57 -10 -82q0 -82 45 -133q70 -63 184 -64q186 6 389 221q129 139 437 555l24 33.5t19 24.5q287 391 473 598q102 115 223 221 q-221 57 -463 147q-147 53 -291 54q-193 0 -362 -95q-33 -20 -47 -30l-19.5 -13.5l-19.5 -13.5q-4 -4 -13.5 -11t-13.5 -12q-6 -6 -11 -10t-9 -8q-6 -6 -9 -6q-12 -10 -26 -2q-12 12 0 26q47 49 141 107q176 104 389 104q152 0 303 -55q250 -90 486 -151q365 303 704 303 l103 -6q41 -4 84 -21q51 -20 75 -51q35 -46 35 -96q0 -17 -4 -33q-16 -70 -70 -115q-119 -100 -372 -100q-229 0 -547 78l-68 -62q-125 -119 -235 -250q-154 -184 -195 -237l-213 -283q-340 -457 -372 -493q-70 -84 -152 -170q-59 -61 -166 -125q-100 -59 -207 -60 q-147 0 -211 76q-55 62 -55 158zM1696 1505q297 -70 512 -69h14q220 0 330 88q51 41 63 96q3 12 3 24q0 37 -27 76q-55 57 -234 64q-325 -5 -661 -279z" />
<glyph unicode="&#xe000;" horiz-adv-x="1040" d="M0 1040h1040v-1040h-1040v1040z" />
<glyph unicode="&#xfb01;" horiz-adv-x="1925" d="M-977 -1130q-33 70 51 266q53 121 88 174q154 299 828 1139l299 370q684 836 997 1188q76 78 152 64q59 -10 84 -64q23 -47 16 -109q-6 -57 -16 -100q-10 -41 -15 -49q-86 -250 -336 -512q-267 -283 -718 -578q-145 -96 -433 -231l-172 -217q66 -66 146 -96 q291 -113 751 102q188 88 353 227q16 14 26.5 -2t-2.5 -26q-169 -141 -362 -234q-483 -217 -783 -100q-74 28 -122 74q29 -322 -111 -648q-133 -322 -348 -530q-164 -156 -287 -156q-66 1 -86 48zM-942 -1116q10 -16 31 -23q106 -25 280 144q209 197 346 526 q135 324 101 637q-496 -635 -621 -875q-57 -102 -88 -172q-78 -176 -49 -237zM74 494q231 115 358 196q862 565 1041 1071q6 6 14 41q6 27 14 92q6 52 -12 99q-14 37 -59 43q-57 6 -115 -54q-8 -10 -28.5 -33.5l-59.5 -69.5l-76 -87l-371 -438l-463 -557zM922 102 q-14 49 2 123q16 76 63 156q82 139 84 141q41 63 96 137l21 29q41 59 143 195q78 102 119 149l23.5 27.5t16.5 20.5l5 7q8 14 27 3q14 -8 2 -27l-5 -7q-5 -7 -16.5 -20.5l-23.5 -27.5q-8 -8 -119 -150q-96 -123 -143 -190q-168 -244 -216 -342q-63 -133 -45 -215 q18 -66 152 -66q166 0 385 121q215 119 418 293q16 14 26 -2q8 -14 -2 -27q-500 -422 -827 -422q-166 0 -186 94zM1593 1350q0 43 29 69q33 29 72 29q41 0 69.5 -28.5t28.5 -69.5q0 -37 -29 -70q-27 -31 -69 -31q-41 0 -72 31q-29 29 -29 70z" />
<glyph unicode="&#xfb02;" horiz-adv-x="2117" d="M-977 -1130q-33 70 51 266q53 121 88 174q154 299 828 1139l299 370q684 836 997 1188q76 78 152 64q59 -10 84 -64q23 -47 16 -109q-6 -57 -16 -100q-10 -41 -15 -49q-86 -250 -336 -512q-267 -283 -718 -578q-145 -96 -433 -231l-172 -217q66 -66 146 -96 q291 -113 751 102q188 88 353 227q16 14 26.5 -2t-2.5 -26q-169 -141 -362 -234q-483 -217 -783 -100q-74 28 -122 74q29 -322 -111 -648q-133 -322 -348 -530q-164 -156 -287 -156q-66 1 -86 48zM-942 -1116q10 -16 31 -23q106 -25 280 144q209 197 346 526 q135 324 101 637q-496 -635 -621 -875q-57 -102 -88 -172q-78 -176 -49 -237zM74 494q231 115 358 196q862 565 1041 1071q6 6 14 41q6 27 14 92q6 52 -12 99q-14 37 -59 43q-57 6 -115 -54q-8 -10 -28.5 -33.5l-59.5 -69.5l-76 -87l-371 -438l-463 -557zM946 289 q115 328 508 923l168 244l131 180q41 55 47 62q0 4 27 33l78 84q52 55 104 98q106 92 186 125q111 49 183 2q57 -37 63 -111q12 -141 -178 -407q-169 -230 -387 -424q-255 -224 -793 -590q-55 -111 -102 -234q-2 -6 -5 -19t-5 -19q-6 -20 -2 -76t30 -86q90 -96 289 -35 q246 74 432 172q188 100 394 260q16 8 26 -2q12 -14 -2 -27q-215 -164 -407 -268q-190 -102 -435 -172q-63 -20 -151 -20q-117 0 -174 67q-77 86 -25 240zM1118 575q526 367 733 551q223 199 383 418q180 246 170 381q-4 57 -47 84q-104 66 -323 -123l-64 -59l-55 -55 l-45 -48q-10 -10 -31 -34l-10 -15l-49 -65l-129 -178l-166 -240q-232 -357 -367 -617z" />
<glyph unicode="&#xfb03;" horiz-adv-x="2965" d="M1962 102q-7 23 -7 51q0 32 9 72q16 76 64 156l84 141q59 90 96 137q6 8 20 29l142 195q78 102 118 149l23.5 27.5l17.5 20.5l6 7q8 14 27 3q14 -8 2 -27l-6 -7l-17.5 -20.5l-23.5 -27.5q-8 -8 -119 -150q-77 -98 -141 -190q-168 -244 -215 -342q-49 -103 -49 -176 q0 -21 4 -39q18 -66 151 -66q166 0 385 121q223 123 418 293q16 14 27 -2q4 -7 4 -13q0 -7 -6 -14q-500 -422 -828 -422q-166 0 -186 94zM2634 1350q0 43 30 69q33 29 70 29q39 0 68 -29q31 -31 30 -69q0 -37 -28 -70q-27 -31 -70 -31q-39 0 -69.5 31t-30.5 70zM67 -1130 q-9 20 -9 49q0 76 60 217q53 121 88 174q154 299 828 1139l299 370q684 836 997 1188q63 66 126 66q13 0 26 -2q59 -10 84 -64q18 -38 17 -84q0 -12 -1 -25q-6 -57 -16 -100q-10 -41 -15 -49q-86 -250 -336 -512q-267 -283 -718 -578q-145 -96 -433 -231l-172 -217 q66 -66 146 -96q100 -39 220 -39q228 0 531 141q188 88 353 227q16 14 26.5 -2t-2.5 -26q-169 -141 -362 -234q-315 -141 -551 -141q-127 0 -232 41q-74 28 -122 74q5 -54 4 -109q0 -268 -115 -539q-133 -322 -348 -530q-164 -156 -287 -156q-66 1 -86 48zM102 -1116 q10 -16 31 -23q14 -3 28 -3q100 0 252 147q209 197 346 526q107 258 108 510q0 64 -7 127q-496 -635 -621 -875q-57 -102 -88 -172q-56 -129 -56 -196q0 -25 7 -41zM1118 494q231 115 358 196q862 565 1041 1071q6 6 14 41q6 27 14 92q2 13 2 26q0 38 -14 73q-14 37 -59 43 q-6 1 -12 0q-52 0 -103 -54q-8 -10 -28.5 -33.5l-59.5 -69.5l-76 -87l-371 -438l-463 -557zM-977 -1130q-9 20 -9 49q0 76 60 217q53 121 88 174q154 299 828 1139l299 370q684 836 997 1188q63 66 126 66q13 0 26 -2q59 -10 84 -64q18 -38 17 -84q0 -12 -1 -25 q-6 -57 -16 -100q-10 -41 -15 -49q-86 -250 -336 -512q-267 -283 -718 -578q-145 -96 -433 -231l-172 -217q66 -66 146 -96q100 -39 220 -39q228 0 531 141q188 88 353 227q16 14 26.5 -2t-2.5 -26q-169 -141 -362 -234q-315 -141 -551 -141q-127 0 -232 41q-74 28 -122 74 q5 -54 4 -109q0 -268 -115 -539q-133 -322 -348 -530q-164 -156 -287 -156q-66 1 -86 48zM-942 -1116q10 -16 31 -23q14 -3 28 -3q100 0 252 147q209 197 346 526q107 258 108 510q0 64 -7 127q-496 -635 -621 -875q-57 -102 -88 -172q-56 -129 -56 -196q0 -25 7 -41z M74 494q231 115 358 196q862 565 1041 1071q6 6 14 41q6 27 14 92q2 13 2 26q0 38 -14 73q-14 37 -59 43q-6 1 -12 0q-52 0 -103 -54q-8 -10 -28.5 -33.5l-59.5 -69.5l-76 -87l-371 -438l-463 -557z" />
<glyph unicode="&#xfb04;" horiz-adv-x="3178" d="M2007 289q115 328 508 923l170 244l129 180q41 55 47 62q0 4 27 33l78 84q52 55 104 98q106 92 186 125q56 25 103 25q45 0 80 -23q57 -37 63 -111q1 -9 1 -17q0 -139 -179 -390q-169 -230 -387 -424q-255 -224 -793 -590q-55 -111 -102 -234q-2 -6 -5 -19t-5 -19 q-3 -14 -4 -38q0 -15 2 -38q4 -55 30 -86q55 -59 151 -59q61 0 138 24q246 74 432 172q188 100 393 260q16 8 27 -2q12 -14 -2 -27q-215 -164 -408 -268q-190 -102 -434 -172q-63 -20 -151 -20q-117 0 -174 67q-46 51 -46 126q0 52 21 114zM2179 575q526 367 733 551 q223 199 383 418q170 234 171 368q0 7 -1 13q-4 57 -47 84q-26 17 -61 17q-100 0 -262 -140l-64 -59l-55 -55l-45 -48q-10 -10 -31 -34l-10 -15l-49 -65l-129 -178l-166 -240q-232 -357 -367 -617zM67 -1130q-9 20 -9 49q0 76 60 217q53 121 88 174q154 299 828 1139 l299 370q684 836 997 1188q63 66 126 66q13 0 26 -2q59 -10 84 -64q18 -38 17 -84q0 -12 -1 -25q-6 -57 -16 -100q-10 -41 -15 -49q-86 -250 -336 -512q-267 -283 -718 -578q-145 -96 -433 -231l-172 -217q66 -66 146 -96q100 -39 220 -39q228 0 531 141q188 88 353 227 q16 14 26.5 -2t-2.5 -26q-169 -141 -362 -234q-315 -141 -551 -141q-127 0 -232 41q-74 28 -122 74q5 -54 4 -109q0 -268 -115 -539q-133 -322 -348 -530q-164 -156 -287 -156q-66 1 -86 48zM102 -1116q10 -16 31 -23q14 -3 28 -3q100 0 252 147q209 197 346 526 q107 258 108 510q0 64 -7 127q-496 -635 -621 -875q-57 -102 -88 -172q-56 -129 -56 -196q0 -25 7 -41zM1118 494q231 115 358 196q862 565 1041 1071q6 6 14 41q6 27 14 92q2 13 2 26q0 38 -14 73q-14 37 -59 43q-6 1 -12 0q-52 0 -103 -54q-8 -10 -28.5 -33.5l-59.5 -69.5 l-76 -87l-371 -438l-463 -557zM-977 -1130q-9 20 -9 49q0 76 60 217q53 121 88 174q154 299 828 1139l299 370q684 836 997 1188q63 66 126 66q13 0 26 -2q59 -10 84 -64q18 -38 17 -84q0 -12 -1 -25q-6 -57 -16 -100q-10 -41 -15 -49q-86 -250 -336 -512 q-267 -283 -718 -578q-145 -96 -433 -231l-172 -217q66 -66 146 -96q100 -39 220 -39q228 0 531 141q188 88 353 227q16 14 26.5 -2t-2.5 -26q-169 -141 -362 -234q-315 -141 -551 -141q-127 0 -232 41q-74 28 -122 74q5 -54 4 -109q0 -268 -115 -539q-133 -322 -348 -530 q-164 -156 -287 -156q-66 1 -86 48zM-942 -1116q10 -16 31 -23q14 -3 28 -3q100 0 252 147q209 197 346 526q107 258 108 510q0 64 -7 127q-496 -635 -621 -875q-57 -102 -88 -172q-56 -129 -56 -196q0 -25 7 -41zM74 494q231 115 358 196q862 565 1041 1071q6 6 14 41 q6 27 14 92q2 13 2 26q0 38 -14 73q-14 37 -59 43q-6 1 -12 0q-52 0 -103 -54q-8 -10 -28.5 -33.5l-59.5 -69.5l-76 -87l-371 -438l-463 -557z" />
</font>
</defs>
</svg>
